<svg xmlns="http://www.w3.org/2000/svg" viewBox="0 0 86 86">
  <path fill="#f9b233" d="M46.515 7.572c-.164.282-.442.674-.686.918-.378.379-1.034.757-1.511.948-.381.118-.933.224-1.318.224s-.937-.106-1.318-.224c-.477-.191-1.133-.569-1.511-.948-.244-.244-.498-.593-.662-.875l-1.334-2.312C19.466 7.675 5 23.648 5 43c0 20.987 17.013 38 38 38s38-17.013 38-38C81 23.647 66.534 7.675 47.825 5.303Zm-9.957-5.069C16.975 5.594 2 22.548 2 43c0 22.644 18.356 41 41 41s41-18.356 41-41C84 22.548 69.025 5.594 49.442 2.503l-1.076 1.863C67.366 6.981 82 23.281 82 43c0 21.539-17.461 39-39 39S4 64.539 4 43C4 23.282 18.634 6.981 37.634 4.366Zm4.683 4.112c.091.167.206.323.344.461.216.216.475.376.756.474.215.075.438.112.659.112.221 0 .444-.037.659-.112.281-.098.54-.258.756-.474.138-.138.253-.294.344-.461l.881-1.525h-.001l.555-.961h.001l1.101-1.907h-.001l1.09-1.888C69.592 2.984 86 21.076 86 43c0 23.748-19.252 43-43 43S0 66.748 0 43C0 21.076 16.408 2.984 37.615.334l1.09 1.888h-.001l1.101 1.907h.001l.555.961h-.001Z"/>
  <path fill="#e8862b" d="M38 2h.577l2.664 4.615c.091.167.206.323.344.461.216.216.475.376.756.474.215.075.438.112.659.112.221 0 .444-.037.659-.112.281-.098.54-.258.756-.474.138-.138.253-.294.344-.461L47.424 2H48c.995 0 1.82.726 1.974 1.677.06.366.019.751-.135 1.11-.033.078-.071.153-.113.225l-4.967 8.603c-.091.167-.206.323-.344.461-.216.216-.475.376-.756.474-.215.075-.438.112-.659.112-.221 0-.444-.037-.659-.112-.281-.098-.54-.258-.756-.474-.138-.138-.253-.294-.344-.461l-4.967-8.603c-.042-.072-.08-.147-.113-.225-.154-.359-.195-.744-.135-1.11C36.18 2.726 37.005 2 38 2Z"/>
</svg>