<svg xmlns="http://www.w3.org/2000/svg" fill="none" viewBox="0 0 189 112">
  <defs>
    <linearGradient id="lyaLinearGradientA" x1="104.9" x2="108.7" y1="12" y2="28.1" gradientTransform="translate(-1)" gradientUnits="userSpaceOnUse">
      <stop stop-color="#F9B233"/>
      <stop offset=".5" stop-color="#F9B233"/>
      <stop offset="1" stop-color="#E94E1B"/>
    </linearGradient>
    <linearGradient id="lyaLinearGradientB" x1="82" x2="82.4" y1="31.8" y2="32" gradientTransform="translate(-1)" gradientUnits="userSpaceOnUse">
      <stop stop-color="#2D2E83"/>
      <stop offset=".5" stop-color="#1D71B8"/>
      <stop offset="1" stop-color="#1D71B8"/>
    </linearGradient>
    <linearGradient id="lyaLinearGradientC" x1="75.2" x2="121.4" y1="53.2" y2="31.3" gradientTransform="translate(-1)" gradientUnits="userSpaceOnUse">
      <stop stop-color="#F9B233"/>
      <stop offset=".5" stop-color="#F9B233"/>
      <stop offset="1" stop-color="#E94E1B"/>
    </linearGradient>
    <linearGradient id="lyaLinearGradientD" x1="126.4" x2="190.3" y1="39.9" y2="8.7" gradientTransform="translate(-1)" gradientUnits="userSpaceOnUse">
      <stop stop-color="#E94E1B"/>
      <stop offset=".1" stop-color="#F39200"/>
      <stop offset=".4" stop-color="#F39200"/>
      <stop offset=".7" stop-color="#F39200"/>
      <stop offset="1" stop-color="#E94E1B"/>
    </linearGradient>
    <linearGradient id="lyaLinearGradientE" x1="146.4" x2="163" y1="20.1" y2="30.1" gradientTransform="translate(-1)" gradientUnits="userSpaceOnUse">
      <stop stop-color="#F39200"/>
      <stop offset=".3" stop-color="#F39200"/>
      <stop offset=".9" stop-color="#E94E1B"/>
      <stop offset="1" stop-color="#E94E1B"/>
    </linearGradient>
    <linearGradient id="lyaLinearGradientF" x1="94.6" x2="136.3" y1="53" y2="78.1" gradientTransform="translate(-1)" gradientUnits="userSpaceOnUse">
      <stop stop-color="#F9B233"/>
      <stop offset=".6" stop-color="#F9B233"/>
      <stop offset="1" stop-color="#E6332A"/>
    </linearGradient>
    <linearGradient id="lyaLinearGradientG" x1="91.6" x2="82.9" y1="14.4" y2="32.2" gradientTransform="translate(-1)" gradientUnits="userSpaceOnUse">
      <stop stop-color="#E94E1B"/>
      <stop offset="1" stop-color="#F39200"/>
    </linearGradient>
    <linearGradient id="lyaLinearGradientH" x1="126.1" x2="74" y1="25.3" y2="9.8" gradientTransform="translate(-1)" gradientUnits="userSpaceOnUse">
      <stop stop-color="#E94E1B"/>
      <stop offset="1" stop-color="#F9B233"/>
    </linearGradient>
  </defs>
  <path fill="url(#lyaLinearGradientA)" d="m94 16-3-1a28 28 0 0 0 5 6c3 3 6 6 10 7a12 12 0 0 0 12-14c-7 4-16 5-24 2Z"/>
  <path fill="url(#lyaLinearGradientB)" d="M82 32h-1 1Z"/>
  <path fill="url(#lyaLinearGradientC)" d="m86 23 2 9-9-1c2 0 4 4 5 7l-13-2a3 3 0 0 0-1 6l11 1 4 1c9 5 16 23 16 23V53h4l13-12V26l-21-9-11 6Z"/>
  <path fill="url(#lyaLinearGradientD)" d="M149 22c-5 29-16 30-16 30l-1 1c18 4 24-12 33-28 10-16 24-17 24-17-6-3-15-8-23-8s-15 5-17 22Z"/>
  <path fill="url(#lyaLinearGradientE)" d="M149 22c-3 21-10 27-14 29 4 0 13-4 21-28 6-18 14-22 23-20-4-2-9-3-13-3-8 0-15 5-17 22Z"/>
  <path fill="url(#lyaLinearGradientF)" d="M113 32c-12 3-18 16-15 29l5 12 13 32c3-2 4-6 3-10l-4-12c4 2 8 3 12 1 12-3 16-21 12-34-3-11-12-18-22-18h-4Z"/>
  <path fill="url(#lyaLinearGradientG)" d="M70 20c2 4 5 8 9 11a19 19 0 0 0 26-9 29 29 0 0 0-35-2Z"/>
  <path fill="url(#lyaLinearGradientH)" d="M70 20a23 23 0 0 1 28 2l7 5a22 22 0 0 0 4 2h1c6 1 13-2 16-8l2-5c-7 6-18 7-27 3l-3-2a22 22 0 0 0-11-4c-6 0-12 3-17 7Z"/>
  <path fill="#fff" d="M89 19a10 10 0 0 0-7 1l-1-1a9 9 0 0 1 8 0ZM30 97v15H0V52h15v45Zm78 15H93l-9-24-10 24H59l24-60 8 18ZM59 52h16l-25 60H35l7-19-17-41h16l8 24Z"/>
</svg>