<svg xmlns="http://www.w3.org/2000/svg" fill="none" viewBox="0 0 190 120">
  <defs>
    <linearGradient id="lyaLinearGradientA" x1=".474" x2=".615" y1="-.165" y2=".997">
      <stop stop-color="#F9B233"/>
      <stop offset=".507" stop-color="#F9B233"/>
      <stop offset="1" stop-color="#E94E1B"/>
    </linearGradient>
    <linearGradient id="lyaLinearGradientB" x1=".06" x2=".935" y1="-.383" y2="1.383">
      <stop stop-color="#2D2E83"/>
      <stop offset=".452" stop-color="#1D71B8"/>
      <stop offset="1" stop-color="#1D71B8"/>
    </linearGradient>
    <linearGradient id="lyaLinearGradientC" x1=".131" x2="1.047" y1=".735" y2=".298">
      <stop stop-color="#F9B233"/>
      <stop offset=".455" stop-color="#F9B233"/>
      <stop offset="1" stop-color="#E94E1B"/>
    </linearGradient>
    <linearGradient id="lyaLinearGradientD" x1="-.116" x2="1.006" y1=".738" y2=".16">
      <stop stop-color="#E94E1B"/>
      <stop offset=".102" stop-color="#F39200"/>
      <stop offset=".422" stop-color="#F39200"/>
      <stop offset=".733" stop-color="#F39200"/>
      <stop offset="1" stop-color="#E94E1B"/>
    </linearGradient>
    <linearGradient id="lyaLinearGradientE" x1=".237" x2=".622" y1=".396" y2=".591">
      <stop stop-color="#F39200"/>
      <stop offset=".262" stop-color="#F39200"/>
      <stop offset=".92" stop-color="#E94E1B"/>
      <stop offset="1" stop-color="#E94E1B"/>
    </linearGradient>
    <linearGradient id="lyaLinearGradientF" x1="-.083" x2=".888" y1=".291" y2=".633">
      <stop stop-color="#F9B233"/>
      <stop offset=".631" stop-color="#F9B233"/>
      <stop offset="1" stop-color="#E6332A"/>
    </linearGradient>
    <linearGradient id="lyaLinearGradientG" x1=".595" x2=".343" y1="-.052" y2=".957">
      <stop stop-color="#E94E1B"/>
      <stop offset="1" stop-color="#F39200"/>
    </linearGradient>
    <linearGradient id="lyaLinearGradientH" x1=".953" x2=".053" y1=".761" y2="-.226">
      <stop stop-color="#E94E1B"/>
      <stop offset="1" stop-color="#F9B233"/>
    </linearGradient>
  </defs>
  <path fill="#fff" d="M31 105v15H0V60h16v45h15Zm79 15H94l-9-24-10 24H60l25-60 8 18 17 42ZM60 60h16l-25 60H35l8-19-17-41h15l9 24 10-24Z"/>
  <path fill="url(#lyaLinearGradientA)" d="M91.579 16.96a30.317 30.317 0 0 1-3.211-1.343 30.397 30.397 0 0 0 4.574 6.228 30.043 30.043 0 0 0 10.975 7.335 12.38 12.38 0 0 0 8.682-3.434 12.434 12.434 0 0 0 3.708-10.924 30.245 30.245 0 0 1-24.73 2.133l.002.002v.003Z"/>
  <path fill="url(#lyaLinearGradientB)" d="M78.179 33.234h.198a5.783 5.783 0 0 0-.484-.135l.286.135Z"/>
  <path fill="url(#lyaLinearGradientC)" d="m82.484 23.858 2.345 9.336-9.444-1.451c2.39.721 4.696 4.685 5.518 7.286l-13.18-1.871c-2.375-.498-4.399 1.762-3.643 4.068a3.154 3.154 0 0 0 2.598 2.146l10.554 1.43c1.397.234 2.759.576 4.079 1.022 9.964 4.654 16.685 23.322 16.685 23.322l.22-14.135 4.198.023 13.361-12.255.601-15.472-17.885-4.836-16.007 1.387Z"/>
  <path fill="url(#lyaLinearGradientD)" d="M147.806 22.783c-4.522 30.628-16.121 30.833-16.121 30.833l-.811 1.865c18.649 4.126 24.698-12.586 34.461-29.261C175.101 9.544 190 8.252 190 8.252c-6.147-2.748-15.592-8.25-24.086-8.25-8.193 0-15.502 5.123-18.108 22.783v-.002Z"/>
  <path fill="url(#lyaLinearGradientE)" d="M147.937 22.777c-3.239 21.946-10.113 28.275-13.75 30.097 3.216-.363 12.943-3.671 21.441-29.302 6.013-18.13 14.676-22.081 23.311-20.491C174.758 1.37 170.283 0 166.047 0c-8.196 0-15.502 5.122-18.108 22.78h-.002v-.003Z"/>
  <path fill="url(#lyaLinearGradientF)" d="M110.407 33.66C98.698 36.768 92.083 50.147 95.64 63.532l5.126 12.398 13.103 33.072a8.364 8.364 0 0 0 3.108-10.056l-4.531-12.297c4.144 1.801 8.711 2.286 13.191 1.092 11.721-3.108 15.98-22.094 12.426-35.48-3.052-11.493-12.606-19.252-22.665-19.252-1.684 0-3.362.219-4.991.651Z"/>
  <path fill="url(#lyaLinearGradientG)" d="M66.499 20.727a19.238 19.238 0 0 0 8.883 11.014c9.792 5.567 22.252 1.603 27.026-8.599a30.163 30.163 0 0 0-4.659-3.264 30.066 30.066 0 0 0-14.892-3.948 30.333 30.333 0 0 0-16.358 4.797Z"/>
  <path fill="url(#lyaLinearGradientH)" d="M66.46 20.797c.028.117.059.23.095.342 7.536-5.034 17.331-5.82 25.466-1.193a23.094 23.094 0 0 1 3.746 2.646l6.423 5.126a23.034 23.034 0 0 0 4.399 1.932c.211.059.425.111.642.158h.015c.32.05.638.106.955.18 6.297.946 12.928-2.153 16.39-8.241a16.863 16.863 0 0 0 1.946-5.349c-7.75 6.448-18.703 7.91-27.651 2.822l-3.324-1.858a22.707 22.707 0 0 0-12.165-3.513c-6.166 0-12.283 2.455-16.937 6.946v.002Z"/>
  <path fill="#000" d="M85.539 19.781a9.896 9.896 0 0 0-2.31-.308 9.611 9.611 0 0 0-4.167.874l-1.093-1.133a9.72 9.72 0 0 1 7.57.567Z"/>
</svg>