<svg xmlns="http://www.w3.org/2000/svg" viewBox="0 0 56 56">
  <defs>
    <linearGradient id="logoLinearGradientA" x1=".474" x2=".615" y1="-.165" y2=".997">
      <stop stop-color="#F9B233"/>
      <stop offset=".507" stop-color="#F9B233"/>
      <stop offset="1" stop-color="#E94E1B"/>
    </linearGradient>
    <linearGradient id="logoLinearGradientB" x1=".06" x2=".935" y1="-.383" y2="1.383">
      <stop stop-color="#2D2E83"/>
      <stop offset=".452" stop-color="#1D71B8"/>
      <stop offset="1" stop-color="#1D71B8"/>
    </linearGradient>
    <linearGradient id="logoLinearGradientC" x1=".131" x2="1.047" y1=".735" y2=".298">
      <stop stop-color="#F9B233"/>
      <stop offset=".455" stop-color="#F9B233"/>
      <stop offset="1" stop-color="#E94E1B"/>
    </linearGradient>
    <linearGradient id="logoLinearGradientD" x1="-.116" x2="1.006" y1=".738" y2=".16">
      <stop stop-color="#E94E1B"/>
      <stop offset=".102" stop-color="#F39200"/>
      <stop offset=".422" stop-color="#F39200"/>
      <stop offset=".733" stop-color="#F39200"/>
      <stop offset="1" stop-color="#E94E1B"/>
    </linearGradient>
    <linearGradient id="logoLinearGradientE" x1=".237" x2=".622" y1=".396" y2=".591">
      <stop stop-color="#F39200"/>
      <stop offset=".262" stop-color="#F39200"/>
      <stop offset=".92" stop-color="#E94E1B"/>
      <stop offset="1" stop-color="#E94E1B"/>
    </linearGradient>
    <linearGradient id="logoLinearGradientF" x1="-.083" x2=".888" y1=".291" y2=".633">
      <stop stop-color="#F9B233"/>
      <stop offset=".631" stop-color="#F9B233"/>
      <stop offset="1" stop-color="#E6332A"/>
    </linearGradient>
    <linearGradient id="logoLinearGradientG" x1=".595" x2=".343" y1="-.052" y2=".957">
      <stop stop-color="#E94E1B"/>
      <stop offset="1" stop-color="#F39200"/>
    </linearGradient>
    <linearGradient id="logoLinearGradientH" x1=".953" x2=".053" y1=".761" y2="-.226">
      <stop stop-color="#E94E1B"/>
      <stop offset="1" stop-color="#F9B233"/>
    </linearGradient>
  </defs>
  <path fill="url(#logoLinearGradientA)" d="M12.225 11.332a13.3 13.3 0 0 1-1.426-.596 13.49 13.49 0 0 0 2.031 2.765 13.34 13.34 0 0 0 4.873 3.257 5.5 5.5 0 0 0 3.855-1.525 5.519 5.519 0 0 0 1.646-4.85 13.43 13.43 0 0 1-10.98.947l.001.001z"/>
  <path fill="url(#logoLinearGradientB)" d="M6.275 18.558h.088a2.604 2.604 0 0 0-.215-.06l.127.06z"/>
  <path fill="url(#logoLinearGradientC)" d="m8.185 14.395 1.041 4.145-4.193-.644c1.061.32 2.085 2.08 2.45 3.235L1.631 20.3a1.399 1.399 0 1 0-.464 2.759l4.686.635c.62.104 1.225.256 1.811.454 4.424 2.066 7.408 10.355 7.408 10.355l.098-6.276 1.864.01 5.932-5.441.267-6.87-7.941-2.147-7.107.616z"/>
  <path fill="url(#logoLinearGradientD)" d="M37.19 13.918c-2.008 13.599-7.158 13.69-7.158 13.69l-.36.828c8.28 1.832 10.966-5.588 15.301-12.992 4.336-7.404 10.951-7.978 10.951-7.978-2.729-1.22-6.923-3.663-10.694-3.663-3.638 0-6.883 2.275-8.04 10.116z"/>
  <path fill="url(#logoLinearGradientE)" d="M37.248 13.915c-1.438 9.744-4.49 12.554-6.105 13.363 1.428-.161 5.747-1.63 9.52-13.01 2.67-8.05 6.516-9.804 10.35-9.098-1.856-.76-3.843-1.368-5.724-1.368-3.639 0-6.883 2.274-8.04 10.114h-.001z"/>
  <path fill="url(#logoLinearGradientF)" d="M20.585 18.747c-5.199 1.38-8.136 7.32-6.557 13.263l2.276 5.505 5.818 14.684a3.715 3.715 0 0 0 1.38-4.465l-2.012-5.46c1.84.8 3.868 1.015 5.857.485 5.204-1.38 7.095-9.81 5.517-15.753-1.355-5.103-5.597-8.548-10.063-8.548a8.63 8.63 0 0 0-2.216.289z"/>
  <path fill="url(#logoLinearGradientG)" d="M1.089 13.005a8.54 8.54 0 0 0 3.944 4.89 8.572 8.572 0 0 0 12-3.818 13.392 13.392 0 0 0-2.069-1.449 13.349 13.349 0 0 0-6.612-1.753c-2.569 0-5.097.74-7.263 2.13z"/>
  <path fill="url(#logoLinearGradientH)" d="M1.072 13.036c.012.052.026.102.042.152 3.346-2.235 7.695-2.584 11.307-.53a10.3 10.3 0 0 1 1.663 1.175l2.852 2.276a10.26 10.26 0 0 0 1.953.858c.094.026.189.049.285.07h.007c.142.022.283.047.424.08 2.796.42 5.74-.956 7.277-3.659a7.505 7.505 0 0 0 .864-2.375c-3.441 2.863-8.304 3.512-12.277 1.253l-1.476-.825a9.95 9.95 0 0 0-1.688-.856 10.085 10.085 0 0 0-3.713-.704c-2.738 0-5.454 1.09-7.52 3.084z"/>
  <path fill="#000" d="M9.543 12.585a4.372 4.372 0 0 0-1.026-.137c-.66-.01-1.289.13-1.85.388l-.485-.503a4.313 4.313 0 0 1 3.361.252z"/>
</svg>