<svg xmlns="http://www.w3.org/2000/svg" viewBox="0 0 90 90">
  <path fill="#171d21" d="M90 45c0 24.851-20.149 45-45 45S0 69.851 0 45 20.149 0 45 0c24.857 0 45 20.149 45 45Zm-67.457 2.127h12.039c.135 0 .259-.065.333-.176.158-.24.305-.49.44-.744 1.04-1.748 1.964-3.639 2.302-5.035.791-3.393-.897-8.844-2.853-13.227-.129-.292-.531-.319-.702-.051L22.395 46.207l-.194.305c-.171.264.019.615.342.615Zm51.324 2.399-13.69 3.958c-.074.019-.139.06-.189.116-1.503 1.659-2.774 2.76-3.066 3.014-.85.721-1.904 1.114-3.014 1.114h-4.956v-5.053h3.939c.102 0 .199-.037.273-.102l.508-.467c.217-.199.476-.439.786-.749.185-.185.388-.383.587-.605.204-.199.403-.421.587-.638.31-.333.606-.68.916-1.045.222-.241.425-.513.624-.786.222-.259.439-.55.643-.828.148-.217.314-.439.476-.675.148-.222.296-.458.421-.679.388-.601.716-1.244.994-1.887.143-.31.254-.638.365-.952.111-.328.203-.638.273-.966.166-.773.203-1.54.129-2.307-.018-.241-.037-.477-.092-.699v-.037c-.019-.157-.056-.332-.107-.494-.166-.749-.425-1.498-.753-2.233-.111-.273-.241-.551-.366-.805-.295-.55-.605-1.1-.957-1.632-.124-.199-.272-.402-.402-.601-.273-.421-.587-.823-.878-1.211-.222-.291-.476-.583-.717-.879-.24-.291-.476-.568-.716-.841-.86-.971-1.762-1.849-2.566-2.598-.148-.148-.31-.296-.477-.44-.624-.568-1.192-1.063-1.669-1.447-.24-.185-.439-.365-.624-.513-.236-.176-.421-.319-.55-.416-.037-.028-.079-.046-.12-.06l-.527-.148v-4.364c0-.712-.287-1.35-.745-1.817-.457-.467-1.095-.754-1.798-.754-1.406 0-2.543 1.151-2.543 2.571v2.94l-.263-.074-.717-.203-.652-.181c-.005 0-.009-.004-.018-.004h-.014l-4.947-1.341c-.218-.06-.403.176-.292.374l.791 1.461c.074.185.18.37.273.569.129.259.259.532.384.804.11.241.221.477.351.736.254.568.532 1.169.804 1.83.185.44.37.879.532 1.337.444 1.151.865 2.381 1.23 3.643.129.402.222.786.333 1.188l.051.222c.148.587.277 1.17.369 1.757.074.402.144.786.181 1.174.055.439.111.878.129 1.318.037.402.056.823.056 1.225 0 1.026-.093 2.016-.31 2.95-.074.272-.148.564-.24.841-.093.328-.222.657-.347 1.008-.074.199-.148.402-.241.601-.457 1.1-1.026 2.196-1.613 3.222-.86 1.521-1.725 2.858-2.33 3.718-.084.124-.162.235-.231.342-.19.268.004.647.332.647h6.399v5.053h-6.473c-1.738 0-3.347-.984-4.124-2.561-.402-.791-.559-1.66-.467-2.51.024-.255-.166-.495-.425-.495H19.302c-.222 0-.402.18-.402.402v.268c0 8.341 6.736 15.1 15.049 15.1h23.454c5.622 0 8.137-6.551 11.429-11.133 1.29-1.794 4.392-3.218 5.298-3.606.148-.065.25-.213.25-.379v-2.899c0-.268-.259-.463-.513-.389Z"/>
</svg>