<svg xmlns="http://www.w3.org/2000/svg" viewBox="0 0 90 90">
  <path fill="#b5ccdc" d="M27 14c0 7.732-6.044 14-13.5 14S0 21.732 0 14 6.044 0 13.5 0 27 6.268 27 14Zm-5.535 2.916c.061-.62-.094-1.243-.442-1.768-.348-.524-.867-.922-1.475-1.128.049-.05.107-.09.171-.12.508-.171.942-.503 1.231-.942.289-.438.417-.958.364-1.476.035-.517-.098-1.033-.382-1.474-.283-.441-.703-.784-1.199-.983-.602-.264-1.251-.413-1.911-.439-3.987-.179-7.987 0-11.981-.086-.405-.007-.337.219-.337.445v10.083c0 .346.076.478.461.472 1.223 0 2.447-.033 3.677 0 .427 0 .495-.133.482-.498v-2.777c0-.312.041-.458.419-.452h5.066c.907 0 1.265.346 1.278 1.209v2.113c0 .279.083.391.392.385h3.836c.309 0 .392-.1.385-.385-.037-.731-.048-1.457-.035-2.179Zm-5.849-4.118h-5.107c-.468 0-.42-.239-.406-.512.014-.272-.11-.578.406-.564h5.107c.405 0 .962-.073.941.544-.02.618-.549.525-.941.532Z" style="mix-blend-mode:luminosity" transform="scale(3.333333 3.214286)"/>
</svg>