<svg xmlns="http://www.w3.org/2000/svg" viewBox="0 0 17 23">
  <path d="M.369873 22.8088v-2.7124c1.746617-1.2329 3.277487-2.3425 4.592587-3.3288 1.3151-.9864 2.44527-1.8802 3.3905-2.6816 1.72604-1.459 2.94874-2.7124 3.66794-3.7604.7397-1.06851 1.1096-2.16785 1.1096-3.29802 0-1.43839-.4315-2.53773-1.2946-3.29803-.863-.76029-2.05482-1.14044-3.57541-1.14044-1.41784 0-2.59938.34932-3.54461 1.04797-.92468.6781-1.61306 1.58224-2.06512 2.7124L0 5.05493C.760294 3.53434 1.84936 2.3117 3.26721 1.38702 4.68506.462341 6.34948 0 8.26049 0 9.55505 0 10.6852.174662 11.651.523985c.9863.349325 1.798.821945 2.435 1.417845.6575.57536 1.1507 1.27401 1.4795 2.09595.3288.80139.4931 1.65415.4931 2.55829 0 1.60278-.5239 3.06172-1.5719 4.37683-1.048 1.2945-2.7946 2.7124-5.23988 4.2535-1.10962.6987-2.3939 1.4487-3.85284 2.2501-1.4384.7808-3.05145 1.6336-4.839171 2.5583H16.0895v2.774H.369873Z"/>
</svg>