<svg xmlns="http://www.w3.org/2000/svg" viewBox="0 0 17 23">
  <path d="m0 19.0986 2.37212-1.8247c.75015 1.0543 1.61182 1.8044 2.585 2.2505.97317.446 2.09841.669 3.3757.669 1.88558 0 3.26418-.4359 4.13598-1.3077.8718-.8921 1.3077-1.9768 1.3077-3.2541 0-1.48-.5677-2.5748-1.703-3.2844-1.1354-.7096-2.59517-1.0644-4.37932-1.0644H4.19682v-.2433h3.3453c.77043 0 1.50031-.0811 2.18965-.2433.68933-.1825 1.29753-.4461 1.82473-.7907.5271-.36497.9427-.82115 1.2469-1.36856.3041-.56769.4561-1.23674.4561-2.00718 0-1.25702-.4156-2.2606-1.2469-3.01076-.8109-.75016-2.03754-1.12524-3.67978-1.12524-1.35839 0-2.49376.28385-3.40611.85153-.91236.56769-1.64224 1.31785-2.18965 2.25047L.334529 4.136C1.14551 2.91953 2.2302 1.92608 3.58859 1.15565 4.96726.385216 6.5588 0 8.36324 0 10.7354 0 12.6006.517 13.959 1.551c1.3787 1.034 2.068 2.44308 2.068 4.22724 0 .8718-.2129 1.63209-.6386 2.28088-.4055.64878-.9529 1.19619-1.6423 1.64223-.6893.44605-1.5003.79075-2.4329 1.03405-.9124.223-1.87541.3649-2.88914.4257 2.43294.0406 4.37934.4562 5.83904 1.2469 1.4801.7704 2.2201 2.1592 2.2201 4.1664 0 1.7842-.7299 3.2743-2.1897 4.4705-1.4597 1.176-3.4568 1.7639-5.99109 1.7639-1.88553 0-3.49735-.3041-4.83547-.9123C2.1491 21.268.993451 20.3353 0 19.0986Z"/>
</svg>