<svg xmlns="http://www.w3.org/2000/svg" viewBox="0 0 43 27" width="43" height="27">
  <path d="M21.5 24.7C9.6 24.7.2 21.6.2 17.6c0-1.9 2.1-3.7 6-5h.4c.1 0 .1.1.2.1 0 0 .1.1.1.2.1 0 .1.1.1.1 0 .1 0 .1-.1.2 0 .1-.1.1-.1.1-.1 0-.1.1-.2.1-3.4 1.1-5.4 2.7-5.4 4.2 0 3.4 9.3 6.2 20.2 6.2 11 0 20.3-2.9 20.3-6.2 0-1.5-1.8-2.9-5-4.1-.1 0-.2-.1-.3-.2-.1-.1-.1-.2 0-.3.1-.1.1-.2.3-.2h.4c3.7 1.3 5.7 3 5.7 4.9 0 3.9-9.4 7-21.3 7z"/>
  <path d="M20.8 26.8h-.2c-.1 0-.1-.1-.2-.1 0 0-.1-.1-.1-.2v-.2c0-.1 0-.1.1-.2 0-.1.1-.1.1-.1l2.5-1.7-2.4-1.5c-.1 0-.1-.1-.1-.1s-.1-.1-.1-.2v-.2c0-.1 0-.1.1-.2s.2-.2.3-.2c.1 0 .3 0 .4.1l3 1.9c.1 0 .1.1.2.1 0 .1.1.1.1.2v.2c0 .1-.1.1-.1.2l-3 2.1c-.4.1-.5.1-.6.1zM30.9 4.2V4l-.1-.1L22.2.1c-.2 0-.4-.1-.7-.1-.2 0-.5.1-.7.2L12.2 4s-.1 0-.1.1v.2s0 .1.1.1l8.6 3.8c.2.1.5.1.7.1s.5-.1.7-.1l8.7-4c0 .1 0 .1 0 0zM19.3 9.6l-8-3.6h-.2c-.1 0-.2 0-.2.1-.1 0-.1.1-.2.2 0 .1-.1.1-.1.2v8.8c0 .3.1.7.3 1 .2.3.5.5.8.7l8 3.6h.3c.1 0 .2 0 .2-.1.1 0 .1-.1.2-.2 0-.1.1-.1.1-.2v-8.8c0-.3-.1-.7-.3-1-.3-.3-.6-.5-.9-.7zm-2.5 6.3v.4c0 .1 0 .2-.1.3l-.1.2c-.1.1-.3.3-.5.3-.1 0-.2.1-.4.1-.1 0-.2 0-.4-.1s-.3-.1-.5-.2-.3-.3-.5-.4c-.1-.2-.3-.4-.3-.6.1-.4 0-.6 0-.9v-.6l.9.3v.6c0 .2 0 .3.1.5l.3.3h.2c.1 0 .1 0 .2-.1s.1-.3.1-.4v-1.5c0-.1-.1-.2-.1-.2l-.2-.2c-.1-.1-.2-.1-.4-.2v-1c.2.1.4.1.6.1.2 0 .2-.2.2-.5v-1c0-.1 0-.3-.1-.4l-.3-.3c-.2-.1-.3 0-.4.1-.1.2-.1.3-.1.4v.6l-1-.3v-.6c0-.2 0-.4.1-.6.1-.2.2-.3.3-.4.1-.1.3-.2.5-.2s.3 0 .5.1h-.1.1c.2.1.4.2.6.4.1.1.3.3.4.5.1.1.1.2.2.3.1.1.1.2.1.3 0 .1.1.3.1.4v1.2c0 .1 0 .3-.1.4 0 .1-.1.2-.2.2-.1.1-.2.1-.3.2.1.1.2.3.3.4.1.1.1.2.2.4 0 .2.1.3.1.5v1.2zm11-5.3-.4.2v5.4l.4-.2c.2-.1.4-.2.5-.4.1-.2.2-.5.2-.8v-3.6c0-.2 0-.4-.2-.6-.1-.1-.3-.1-.5 0z"/>
  <path d="M32.5 6.2c0-.1-.1-.1-.2-.2-.1 0-.1-.1-.2 0-.1 0-.2 0-.2.1l-8.4 3.7c-.3.1-.5.3-.6.5-.1.2-.2.5-.2.7v9.2c0 .1 0 .1.1.2 0 .1.1.1.1.1.1 0 .1.1.2.1h.2l8.4-3.7c.3-.1.5-.3.6-.5.2-.2.3-.5.3-.7V6.4c-.1-.1-.1-.2-.1-.2zm-3.1 4.7v3.5c0 .6-.1 1.2-.4 1.7-.3.4-.7.8-1.2 1l-1.3.5-.1-7.4 1.4-.5.1.1c.2-.1.4-.2.6-.2s.4.1.6.2c.2.2.3.4.4.6-.1 0 0 .3-.1.5z"/>
</svg>