<svg xmlns="http://www.w3.org/2000/svg" viewBox="0 0 72 72">
  <path d="m44.925 9.05696 2.88-5.196c.0368-.06658.0602-.13976.0688-.21537.0085-.07561.0021-.15216-.0189-.22529-.0211-.07312-.0563-.14139-.1037-.2009-.0474-.05951-.1061-.1091-.1727-.14594-.0666-.03683-.1398-.06019-.2154-.06875-.0756-.00855-.1521-.00213-.2253.01891-.0731.02103-.1413.05626-.2009.10367-.0595.04742-.1091.10609-.1459.17267l-2.91 5.25c-2.4841-1.08915-5.1671-1.65148-7.8795-1.65148-2.7124 0-5.3954.56233-7.8795 1.65148l-2.91-5.25c-.0744-.13526-.1995-.23543-.3477-.27847-.1483-.04303-.3075-.02542-.4428.04897-.1353.0744-.2354.19947-.2785.34772-.043.14825-.0254.30752.049.44278l2.88 5.196c-2.7402 1.35144-5.0554 3.43144-6.6916 6.01174-1.6363 2.5803-2.5304 5.5614-2.5844 8.6163h36.411c-.0545-3.0556-.9495-6.0371-2.5869-8.6174-1.6373-2.5804-3.9537-4.66-6.6951-6.01064ZM27.6 17.022c-.3009 0-.5951-.0893-.8453-.2566-.2502-.1672-.4452-.405-.5602-.6831-.115-.2781-.145-.584-.086-.8792.0589-.2951.204-.5661.4171-.7787.213-.2126.4843-.3572.7795-.4156.2953-.0583.6012-.0278.8791.0878.2778.1156.5152.311.6819.5615.1668.2505.2555.5449.2549.8459-.0008.4028-.1614.7889-.4465 1.0735-.2852.2846-.6716.4445-1.0745.4445Zm16.806 0c-.3009 0-.5951-.0893-.8453-.2566-.2502-.1672-.4452-.405-.5602-.6831-.115-.2781-.145-.584-.086-.8792.0589-.2951.204-.5661.4171-.7787.213-.2126.4843-.3572.7795-.4156.2953-.0583.6012-.0278.8791.0878.2778.1156.5152.311.6819.5615.1668.2505.2555.5449.2549.8459-.0008.4028-.1614.7889-.4465 1.0735-.2852.2846-.6716.4445-1.0745.4445ZM17.79 51.513c-.0008.5792.1128 1.1528.3341 1.6881.2214.5352.5463 1.0215.956 1.4309.4097.4094.8962.734 1.4316.955.5354.221 1.1091.3341 1.6883.333h2.919v9c0 1.0824.43 2.1206 1.1955 2.886.7654.7654 1.8035 1.1955 2.886 1.1955s2.1206-.4301 2.8861-1.1955c.7654-.7654 1.1954-1.8036 1.1954-2.886v-9h5.442v9c0 1.082.4299 2.1198 1.195 2.885.7652.7651 1.8029 1.195 2.885 1.195 1.0821 0 2.1199-.4299 2.885-1.195.7652-.7652 1.195-1.803 1.195-2.885v-9h2.922c.5785.0004 1.1513-.1133 1.6858-.3345s1.0202-.5455 1.4292-.9546c.409-.409.7334-.8946.9546-1.4291.2212-.5345.3348-1.1074.3344-1.6858V25.125H17.79v26.388Zm-5.601-27.09c-1.0821.0016-2.1194.4323-2.88429 1.1978-.76489.7654-1.19491 1.803-1.1957 2.8852v17.007c0 .5358.10553 1.0663.31057 1.5613.20504.495.50557.9448.88443 1.3237.37887.3788.82869.6794 1.32369.8844.495.205 1.0255.3106 1.5613.3106.5358 0 1.0663-.1056 1.5614-.3106.495-.205.9447-.5056 1.3236-.8844.3789-.3789.6794-.8287.8844-1.3237.2051-.495.3106-1.0255.3106-1.5613V28.506c-.0016-1.0816-.4319-2.1185-1.1967-2.8833-.7649-.7648-1.8017-1.1952-2.8833-1.1967v-.003Zm47.616 0c-1.0821.0016-2.1194.4323-2.8843 1.1978-.7649.7654-1.1949 1.803-1.1957 2.8852v17.007c0 .5358.1055 1.0663.3106 1.5613.205.495.5056.9448.8844 1.3237.3789.3788.8287.6794 1.3237.8844.495.205 1.0255.3106 1.5613.3106.5358 0 1.0663-.1056 1.5614-.3106.495-.205.9447-.5056 1.3236-.8844.3789-.3789.6794-.8287.8844-1.3237.2051-.495.3106-1.0255.3106-1.5613V28.506c-.0016-1.0816-.4319-2.1185-1.1967-2.8833-.7649-.7648-1.8017-1.1952-2.8833-1.1967v-.003Z"/>
</svg>