<svg xmlns="http://www.w3.org/2000/svg" viewBox="0 0 83 83">
  <mask id="a" fill="#fff">
    <path fill-rule="evenodd" d="M42.7321 4.8089c-.7699 1.33333-2.6943 1.33334-3.4642 0L36.5499.101067C15.9636 2.54791 0 20.0642 0 41.3089c0 22.9198 18.5802 41.5 41.5 41.5S83 64.2287 83 41.3089C83 19.7413 66.5475 2.01642 45.5085 0l-2.7764 4.8089Z" clip-rule="evenodd"/>
  </mask>
  <path fill="#F9B233" d="m39.2679 4.8089-1.732 1 1.732-1Zm3.4642 0 1.732 1-1.732-1ZM36.5499.101067l1.732-.999999-.6591-1.141608-1.309.15559.2361 1.986017ZM45.5085 0l.1908-1.99088-1.28-.12267-.6429 1.113551L45.5085 0Zm-7.9726 5.8089c1.5396 2.66667 5.3886 2.66666 6.9282 0l-3.4641-2-3.4641 2Zm-2.7181-4.70783 2.7181 4.70783 3.4641-2-2.7181-4.707832-3.4641 2.000002ZM2 41.3089C2 21.0894 17.1938 4.41576 36.7859 2.08709l-.4721-3.97204C14.7333.680055-2 19.0389-2 41.3089h4Zm39.5 39.5c-21.8152 0-39.5-17.6848-39.5-39.5h-4c0 24.0244 19.4756 43.5 43.5 43.5v-4Zm39.5-39.5c0 21.8152-17.6848 39.5-39.5 39.5v4c24.0244 0 43.5-19.4756 43.5-43.5h-4ZM45.3177 1.99088C65.3407 3.90991 81 20.7819 81 41.3089h4C85 18.7008 67.7544.12292 45.6993-1.99088l-.3816 3.98176Zm-.8536 3.81802L47.2405.999999 43.7764-.999999 41 3.8089l3.4641 2Z" mask="url(#a)"/>
  <mask id="b" fill="#fff">
    <path fill-rule="evenodd" d="M39.3069 4.87376c-.0133-.02124-.0263-.04284-.039-.0648l-.5199-.90056C19.3223 5.31739 4 21.5238 4 41.309c0 20.7106 16.7893 37.5 37.5 37.5S79 62.0196 79 41.309C79 21.1968 63.167 4.78256 43.2853 3.85071l-.5532.95825c-.0039.00671-.0078.01338-.0118.02002C62.3138 5.47264 78 21.5589 78 41.309c0 20.1584-16.3416 36.5-36.5 36.5S5 61.4674 5 41.309C5 21.8869 20.1696 6.00787 39.3069 4.87376Z" clip-rule="evenodd"/>
  </mask>
  <path fill="#F9B233" d="m39.2679 4.80896-.866.5v.00002l.866-.50002Zm.039.0648.0592.99825 1.683-.09974-.8946-1.4291-.8476.53059Zm-.5589-.96536.866-.5-.3133-.54271-.625.04533.0723.99738Zm4.5373-.05769.0468-.99891-.6083-.02851-.3045.52742.866.5Zm-.5532.95825.866.50002v-.00002l-.866-.5Zm-.0118.02002-.8605-.50935-.8602 1.45336 1.6879.05545.0328-.99946Zm-4.3184.48c.0187.03225.0378.06404.0574.09537l1.6952-1.06118c-.0069-.01115-.0138-.02256-.0205-.03423l-1.7321 1.00004Zm-.5199-.90058.5199.90056 1.7321-1-.52-.90056-1.732 1Zm.7937-1.49738C18.7309 4.35766 3 20.9958 3 41.309h2C5 22.0519 19.9136 6.27713 38.8204 4.90578l-.1447-1.99476ZM3 41.309c0 21.2629 17.237 38.5 38.5 38.5v-2c-20.1584 0-36.5-16.3416-36.5-36.5H3Zm38.5 38.5c21.263 0 38.5-17.2371 38.5-38.5h-2c0 20.1584-16.3416 36.5-36.5 36.5v2Zm38.5-38.5C80 20.6602 63.7448 3.80854 43.3321 2.8518l-.0936 1.99781C62.5892 5.75657 78 21.7334 78 41.309h2ZM43.5981 5.30896l.5532-.95825-1.732-1-.5533.95825 1.7321 1Zm-.0172.02936c.0057-.00962.0114-.0194.0172-.02934L41.866 4.30894c-.002.00347-.0041.00704-.0062.01069l1.7211 1.01869ZM79 41.309C79 21.0177 62.8841 4.49084 42.7532 3.82952l-.0657 1.99892C61.7435 6.45445 77 22.1002 77 41.309h2Zm-37.5 37.5c20.7107 0 37.5-16.7894 37.5-37.5h-2c0 19.6061-15.8939 35.5-35.5 35.5v2ZM4 41.309c0 20.7106 16.7893 37.5 37.5 37.5v-2c-19.6061 0-35.5-15.8939-35.5-35.5H4ZM39.2478 3.87551C19.5852 5.04074 4 21.3544 4 41.309h2C6 22.4194 20.754 6.97499 39.3661 5.87201l-.1183-1.9965Z" mask="url(#b)"/>
  <path fill="#E8862B" fill-rule="evenodd" d="M43.0652 5.30896c-.7698 1.33333-2.6943 1.33333-3.4641 0l-2.3094-4h-.6218c-1.5396 0-2.5019 1.66667-1.7321 3l4.3301 7.50004c.7698 1.3333 2.6943 1.3333 3.4641 0l4.3302-7.50004c.7624-1.32053-.1742-2.96801-1.6879-2.99954l-2.3091 3.99954Z" clip-rule="evenodd"/>
</svg>