<svg xmlns="http://www.w3.org/2000/svg" viewBox="0 0 512 512">
  <path d="M414.621 336.751c-.027.293-.179.561-.417.735-24.187 17.913-51.253 31.567-80.034 40.374-.417.128-.869-.026-1.123-.381-6.087-8.444-11.546-17.323-16.334-26.566-.278-.541-.024-1.205.545-1.421 8.644-3.25 16.998-7.224 24.974-11.88.626-.375.672-1.265.088-1.702-1.69-1.256-3.368-2.576-4.97-3.896-.295-.241-.703-.291-1.047-.127-51.75 23.9-108.447 23.9-160.817 0-.343-.154-.744-.1-1.034.139-1.602 1.32-3.28 2.628-4.957 3.884-.581.442-.529 1.332.101 1.702 7.993 4.617 16.34 8.593 24.962 11.892.569.209.829.868.554 1.409-4.709 9.294-10.176 18.185-16.346 26.581-.261.345-.709.492-1.123.367-28.729-8.836-55.749-22.489-79.905-40.375-.235-.182-.385-.452-.416-.748-5.575-59.681 5.789-120.111 47.274-182.064.102-.164.252-.292.429-.368 20.745-9.527 42.641-16.315 65.137-20.194.417-.066.833.131 1.047.495 3.05 5.396 5.799 10.955 8.236 16.653 24.247-3.68 48.911-3.68 73.158 0 2.421-5.683 5.127-11.242 8.109-16.653.205-.373.627-.573 1.046-.495 22.494 3.887 44.388 10.675 65.136 20.194.179.073.326.208.415.381 36.138 53.131 53.986 113.066 47.312 182.064Zm-182.929-68.593c.251-17.643-12.614-32.239-28.759-32.239-16.019 0-28.758 14.47-28.758 32.24 0 17.77 12.991 32.239 28.758 32.239 16.018 0 28.759-14.469 28.759-32.24Zm106.33 0c.252-17.643-12.614-32.239-28.759-32.239-16.019 0-28.758 14.47-28.758 32.24 0 17.77 12.991 32.239 28.758 32.239 16.145 0 28.759-14.469 28.759-32.24ZM384 32H128c-74.5 0-96 21.5-96 96v256c0 74.5 21.5 96 96 96h256c74.5 0 96-21.5 96-96V128c0-74.5-21.5-96-96-96Z"/>
</svg>