<svg xmlns="http://www.w3.org/2000/svg" viewBox="0 0 39 45">
  <g fill="#3F6F8C">
    <path d="M8.37624 7.62915c-.84767 0-1.67631.25136-2.38112.72231-.70481.47094-1.25415 1.14031-1.57854 1.92344-.32439.7832-.40927 1.6449-.24389 2.4763.16537.8314.57356 1.5951 1.17296 2.1945.59939.5993 1.36307 1.0075 2.19445 1.1729.83139.1654 1.69314.0805 2.4763-.2439.7831-.3244 1.4525-.8737 1.9234-1.5785.471-.7048.7224-1.5335.7224-2.3811 0-1.1367-.4516-2.22687-1.2554-3.03064-.8037-.80376-1.89386-1.25531-3.03056-1.25531Zm0 6.02875c-.35173 0-.69556-.1043-.98801-.2997-.29246-.1954-.5204-.4732-.655-.7981-.1346-.325-.16982-.6826-.1012-1.0276.06862-.3449.23799-.6618.48671-.9105.24871-.2487.56558-.4181.91056-.4867.34497-.0686.70254-.0334 1.0275.1012s.60271.3625.79812.655c.19538.2924.29968.6363.29968.988 0 .4716-.18734.924-.52085 1.2575-.33351.3335-.78585.5209-1.25751.5209Zm24.73726-3.0053H14.1204v2.5253h18.9931v-2.5253ZM8.37624 16.8413c-.84767 0-1.67631.2514-2.38112.7223-.70481.471-1.25415 1.1403-1.57854 1.9235-.32439.7831-.40927 1.6449-.24389 2.4763.16537.8313.57356 1.595 1.17296 2.1944.59939.5994 1.36307 1.0076 2.19445 1.173.83139.1653 1.69314.0805 2.4763-.2439.7831-.3244 1.4525-.8737 1.9234-1.5786.471-.7048.7224-1.5334.7224-2.3811 0-1.1367-.4516-2.2268-1.2554-3.0306-.8037-.8037-1.89386-1.2553-3.03056-1.2553Zm0 6.0465c-.35173 0-.69556-.1043-.98801-.2997-.29246-.1954-.5204-.4732-.655-.7981-.1346-.325-.16982-.6825-.1012-1.0275.06862-.345.23799-.6619.48671-.9106.24871-.2487.56558-.4181.91056-.4867.34497-.0686.70254-.0334 1.0275.1012s.60271.3626.79812.655c.19538.2925.29968.6363.29968.988 0 .4717-.18734.924-.52085 1.2575-.33351.3336-.78585.5209-1.25751.5209Zm24.73726-3.0233H14.1204v2.5253h18.9931v-2.5253ZM8.3761 25.9822c-.84919 0-1.67922.2523-2.38478.7248-.70557.4726-1.25486 1.144-1.57818 1.9293-.32332.7852-.40609 1.6488-.23781 2.4811.16827.8323.58001 1.5959 1.18297 2.1939.60296.5979 1.36996 1.0033 2.20367 1.1646.83372.1614 1.69657.0714 2.47903-.2584.7825-.3299 1.4494-.8848 1.9161-1.5942.4666-.7095.712-1.5416.7049-2.3908-.0094-1.1305-.4651-2.2115-1.2678-3.0076-.8028-.7961-1.88755-1.2428-3.0181-1.2427Zm0 6.0465c-.35174 0-.69557-.1043-.98802-.2997-.29246-.1954-.5204-.4732-.655-.7981-.1346-.325-.16982-.6826-.1012-1.0275.06862-.345.238-.6619.48671-.9106.24871-.2487.56559-.4181.91056-.4867s.70255-.0334 1.0275.1012c.32496.1346.60271.3625.79812.655.19543.2924.29973.6363.29973.988-.0047.4686-.19414.9164-.52714 1.246-.33301.3297-.78267.5146-1.25126.5146v.0178Zm24.7374-3.0231H14.1204v2.5253h18.9931v-2.5253Z"/>
    <path d="M33.238 0H5.74419C4.22073 0 2.75968.605189 1.68243 1.68243.605189 2.75968 0 4.22073 0 5.74419V38.8577c0 1.5235.605189 2.9845 1.68243 4.0618 1.07725 1.0772 2.5383 1.6824 4.06176 1.6824H33.238c1.5235 0 2.9845-.6052 4.0618-1.6824 1.0772-1.0773 1.6824-2.5383 1.6824-4.0618V5.74419c0-1.52346-.6052-2.98451-1.6824-4.06176C36.2225.605189 34.7615 0 33.238 0Zm3.2189 38.8577c0 .8537-.3391 1.6725-.9428 2.2761-.6036.6037-1.4224.9428-2.2761.9428H5.74419c-.8537 0-1.67244-.3391-2.27609-.9428-.60366-.6036-.94279-1.4224-.94279-2.2761V5.74419c0-.8537.33913-1.67244.94279-2.27609.60365-.60366 1.42239-.94279 2.27609-.94279H33.238c.8537 0 1.6725.33913 2.2761.94279.6037.60365.9428 1.42239.9428 2.27609V38.8577Z"/>
  </g>
</svg>