<svg xmlns="http://www.w3.org/2000/svg" viewBox="0 0 30 30">
  <path d="M6.094 27.934c-.245 0-.489-.065-.71-.195a1.391 1.391 0 0 1-.697-1.213V7.03a.469.469 0 0 1 .938 0v19.495c0 .242.162.363.232.405.07.04.255.122.466.003L26.905 15.41a.46.46 0 0 0 .24-.409.46.46 0 0 0-.24-.409L6.323 3.067a.469.469 0 0 0-.698.407v.745a.469.469 0 0 1-.938 0v-.745c0-.504.26-.958.696-1.213a1.388 1.388 0 0 1 1.398-.013l20.58 11.525c.45.253.72.711.72 1.227 0 .516-.268.974-.72 1.227L6.782 27.753c-.216.12-.452.18-.687.18Z"/>
</svg>