<svg xmlns="http://www.w3.org/2000/svg" viewBox="0 0 512 512">
  <path d="M306.2 345.5c-19.5 19.6-81.8 19.2-100.5 0-2.4-2.4-6.5-2.4-8.9 0-2.7 2.7-2.7 6.8 0 9.2 24.6 24.6 93.9 24.5 118.4 0 2.7-2.4 2.7-6.5 0-9.2-2.4-2.3-6.6-2.3-9 0Zm-82.3-53.8c0-14.9-11.9-26.8-26.5-26.8-14.9 0-26.8 11.9-26.8 26.8 0 14.6 11.9 26.5 26.8 26.5 14.6 0 26.5-11.9 26.5-26.5Zm90.7-26.8c-14.6 0-26.5 11.9-26.5 26.8 0 14.6 11.9 26.5 26.5 26.5 14.9 0 26.8-11.9 26.8-26.5 0-14.9-11.9-26.8-26.8-26.8Zm81.8 22.9c1.5 5.4 2.1 11.3 2.1 17 0 56.5-63.7 102.3-142.2 102.3-78.2 0-141.9-45.8-141.9-102.3 0-5.7.6-11.3 1.8-16.7-34.3-17.1-22-67.5 15.5-67.5 10.1 0 19.4 4.2 25.9 11 24.1-16.7 56.2-27.4 91.9-28.9l20.5-92.8c.9-3.3 4.1-5.7 7.4-4.8l65.7 14.6c4.5-8.7 13.4-14.9 23.8-14.9 14.9 0 26.8 12.2 26.8 26.8 0 14.6-11.9 26.8-26.8 26.8-14.6 0-26.5-11.9-26.5-26.5l-59.5-13.4-18.7 84.2c36 1.2 68.4 11.9 92.5 28.6 6.6-6.5 15.5-10.7 25.6-10.7 37.3 0 49.7 50 16.1 67.2ZM384 32H128c-74.5 0-96 21.5-96 96v256c0 74.5 21.5 96 96 96h256c74.5 0 96-21.5 96-96V128c0-74.5-21.5-96-96-96Z"/>
</svg>