<svg xmlns="http://www.w3.org/2000/svg" viewBox="0 0 46 46">
  <path d="M22.7476 0c-4.499 0-8.897 1.33413-12.6379 3.83367C6.36891 6.33321 3.45328 9.8859 1.73157 14.0425.00985614 18.1991-.440623 22.7729.437099 27.1855c.877721 4.4126 3.044221 8.4658 6.225541 11.6471 3.18131 3.1813 7.23456 5.3478 11.64716 6.2256 4.4126.8777 8.9864.4272 13.143-1.2945 4.1566-1.7217 7.7093-4.6373 10.2088-8.3782 2.4995-3.7408 3.8337-8.1388 3.8337-12.6379 0-6.033-2.3967-11.819-6.6627-16.08497C34.5666 2.39662 28.7807 0 22.7476 0Zm0 43.4881c-4.102 0-8.112-1.2164-11.5228-3.4954-3.41071-2.279-6.06907-5.5182-7.63887-9.308-1.5698-3.7899-1.98053-7.9601-1.18025-11.9833.80027-4.0233 2.77561-7.7189 5.67622-10.61951 2.9006-2.90061 6.5962-4.87595 10.6195-5.67622 4.0232-.80028 8.1934-.38955 11.9833 1.18025 3.7898 1.5698 7.029 4.22816 9.308 7.63888 2.279 3.4108 3.4954 7.4207 3.4954 11.5228 0 5.5007-2.1851 10.7762-6.0747 14.6658-3.8896 3.8896-9.165 6.0747-14.6658 6.0747Z"/>
  <path d="M25.9423 16.9101c0 .2661.1057.5214.2939.7096.1882.1882.4435.2939.7097.2939h2.6427l-5.988 5.988-4.1815-4.1815-8.2293 8.1791c-.1789.1868-.2788.4355-.2788.6941 0 .2587.0999.5073.2788.6942.0893.0967.1981.1735.3191.2254.1211.0519.2517.0776.3834.0756.2698-.003.5278-.111.7192-.301l6.8076-6.6905 4.1815 4.1815 7.3595-7.3595v2.5424c0 .1318.026.2623.0764.384.0505.1218.1244.2324.2176.3256.0932.0932.2038.1671.3256.2176.1217.0504.2522.0763.384.0763.1318 0 .2623-.0259.3841-.0763.1217-.0505.2324-.1244.3256-.2176.0931-.0932.1671-.2038.2175-.3256.0504-.1217.0764-.2522.0764-.384v-6.0549h-6.0214c-.2662 0-.5215.1057-.7097.2939-.1882.1882-.2939.4435-.2939.7097Z"/>
</svg>