<svg xmlns="http://www.w3.org/2000/svg" viewBox="0 0 17 23">
  <path d="M16.4602 15.2889c0 1.1096-.1952 2.1268-.5857 3.0516-.3904.9247-.9453 1.7159-1.6645 2.3734-.7192.6576-1.5823 1.1714-2.5892 1.5413-.9864.3699-2.07553.5548-3.26741.5548-2.0344 0-3.72974-.3699-5.08601-1.1097C1.91111 20.94.821982 19.8714 0 18.4946l2.74336-1.6029c.55484 1.0686 1.3049 1.87 2.25018 2.4043.96583.5343 2.10633.8015 3.4215.8015 1.54122 0 2.80506-.4932 3.79136-1.4796.9864-.9864 1.4796-2.4043 1.4796-4.2538 0-1.6645-.4521-3.0105-1.3563-4.038-.9042-1.04798-2.1679-1.57199-3.79136-1.57199-.78089 0-1.50012.15412-2.1577.46236-.63704.2877-1.20215.66786-1.69534 1.14053-.49319.4726-.90418 1.0069-1.23298 1.6028-.30824.5754-.53428 1.1508-.67813 1.7262l-2.6817171-.4007L.863081 0H15.9362v2.71254H3.4215L2.80501 12.8846c.18495-.5138.45209-1.0378.80144-1.5721.34934-.5343.7706-1.0172 1.26379-1.44872.51374-.43154 1.0994-.78088 1.75699-1.04802.67814-.2877 1.43847-.43154 2.281-.43154 1.06858 0 2.06527.15412 2.98997.46236.9247.30824 1.7262.76033 2.4043 1.35632.6781.5753 1.2021 1.2946 1.572 2.1577.3905.863.5857 1.8391.5857 2.9283Z"/>
</svg>