<svg xmlns="http://www.w3.org/2000/svg" viewBox="0 0 978.2 168.2">
  <path d="M144.091982 100.571009c-2.934 1.793-6.357 2.119-8.965.652-3.26-1.956-5.216-6.357-5.216-12.388v-18.419c0-8.802-3.423-15.159-9.291-16.789-9.943-2.934-17.441 9.291-20.212 13.855l-17.604 28.199v-34.719c-.163-7.987-2.771-12.714-7.661-14.181-3.26-.978-8.15-.489-12.877 6.683l-39.283 62.918c-5.216-9.943-7.987-21.027-7.987-32.274 0-37.979 30.481-68.786 67.808-68.786 37.327 0 67.808 30.807 67.808 68.786v.326c.326 7.335-1.956 13.203-6.52 16.137zm21.516-16.463v-.326c-.163-46.129-37.327-83.782-82.804-83.782-45.64 0-82.804 37.653-82.804 84.108 0 46.292 37.164 84.108 82.804 84.108 21.027 0 40.913-7.987 56.235-22.494 3.097-2.934 3.26-7.661.326-10.758-2.771-3.097-7.498-3.26-10.595-.489l-.163.163c-12.388 11.736-29.014 18.419-46.129 18.419-20.049 0-37.979-8.802-50.367-22.82l35.371-56.724v26.243c0 12.551 4.89 16.626 8.965 17.767 4.075 1.141 10.269.326 16.952-10.269l19.397-31.459c.652-.978 1.141-1.956 1.793-2.608v15.974c0 11.736 4.727 21.19 12.877 25.754 7.335 4.238 16.626 3.749 24.287-.978 9.454-6.194 14.507-16.952 13.855-29.829zm115.404-28.688c1.956 1.141 3.749 3.912 3.749 6.357 0 3.912-3.26 7.172-7.009 7.172-.978 0-1.793-.326-2.608-.489-4.401-3.26-9.943-5.379-15.811-5.379-13.855 0-23.309 11.247-23.309 25.265s9.617 25.102 23.309 25.102c6.846 0 13.04-2.771 17.604-7.172 1.141-.815 2.608-1.304 4.075-1.304 3.749 0 6.683 2.934 6.683 6.683 0 2.445-1.467 4.564-3.26 5.705-6.683 5.705-15.648 9.454-24.939 9.454-21.19 0-38.468-17.441-38.468-38.957 0-21.516 17.278-38.957 38.468-38.957 7.824-.163 15.322 2.282 21.516 6.52zm38.794 16.3c14.507 0 26.569 12.225 26.569 27.384 0 14.996-12.225 27.873-26.569 27.873-15.159 0-27.71-12.714-27.71-27.873s12.551-27.384 27.71-27.384zm-.163 41.728c6.357 0 11.736-6.031 11.736-14.181 0-8.15-5.379-13.366-11.736-13.366-6.846 0-12.551 5.053-12.551 13.366 0 7.987 5.705 14.181 12.551 14.181zm35.86 5.053v-38.468c0-4.238 3.26-7.661 7.498-7.661 4.075 0 7.498 3.423 7.498 7.661v38.468c0 4.238-3.423 7.661-7.498 7.661s-7.498-3.586-7.498-7.661zm-1.141-60.636c0-5.053 3.912-8.965 8.639-8.965 4.89 0 8.802 4.075 8.802 8.965s-3.912 8.802-8.802 8.802c-4.89-.163-8.639-4.075-8.639-8.802zm44.825 39.772v20.864c0 4.238-3.423 7.661-7.498 7.661s-7.498-3.423-7.498-7.661v-40.261c0-3.26 2.608-5.868 5.868-5.868 3.26 0 5.705 2.771 5.705 5.868 6.031-5.705 11.41-6.52 16.463-6.52 14.996 0 21.679 11.247 21.679 24.124v22.657c0 4.238-3.423 7.661-7.498 7.661s-7.498-3.423-7.498-7.661v-20.864c0-6.52-.815-12.062-10.269-12.062-6.683 0-9.454 5.542-9.454 12.062zm83.293 7.987c-1.793 0-2.934-.815-3.912-1.956l-17.441-18.908v33.741c0 4.238-3.423 7.661-7.498 7.661s-7.498-3.423-7.498-7.661v-66.83c.489-1.141 1.63-1.956 2.771-1.956 1.304 0 2.445 1.141 3.26 1.956l27.873 31.296c.815.978 1.793 1.467 2.445 1.467.489 0 1.63-.489 2.445-1.467l27.873-31.296c.815-.815 1.793-1.956 3.26-1.956 1.304 0 2.445.815 2.771 1.956v66.83c0 4.238-3.26 7.661-7.498 7.661-4.075 0-7.498-3.423-7.498-7.661v-33.741l-17.441 18.908c-1.304 1.141-2.445 1.956-3.912 1.956zm72.046 7.824c6.683 0 12.388-6.031 12.388-14.181 0-8.15-5.868-13.529-12.388-13.529s-11.899 5.542-11.899 13.529c0 7.824 5.216 14.181 11.899 14.181zm15.974 6.846-.326-1.793c-2.934 5.705-12.225 8.313-18.093 8.313-14.018 0-24.45-12.714-24.45-27.873 0-14.996 10.595-27.384 25.265-27.384 2.445 0 10.921.652 17.441 8.313l.326-1.793c0-3.26 2.445-5.868 5.705-5.868 3.26 0 5.868 2.771 5.868 5.868v42.054c0 3.26-2.608 5.868-5.868 5.868-3.423.163-5.868-2.608-5.868-5.705zm52.975-34.719h-1.63c-9.454.489-11.247 5.868-11.247 12.062v20.864c0 4.238-3.423 7.661-7.498 7.661s-7.498-3.423-7.498-7.661v-40.261c0-3.26 2.608-5.868 5.868-5.868 3.26 0 5.705 2.771 5.705 5.868 5.542-5.216 10.106-6.357 14.67-6.52h1.467c3.586 0 6.846 3.097 6.846 7.009.163 3.586-3.097 6.846-6.683 6.846zm57.865 29.34c.652 1.141 1.141 2.282 1.141 3.586 0 3.912-3.586 7.498-7.498 7.498-2.608 0-4.89-1.956-6.683-4.238l-17.278-20.049v16.626c0 4.238-3.423 7.661-7.498 7.661s-7.498-3.423-7.498-7.661v-61.125c0-4.238 3.26-7.661 7.498-7.661s7.498 3.423 7.498 7.661v38.142l17.278-19.071c1.793-1.956 3.912-4.075 6.52-4.075 3.749 0 7.172 3.423 7.172 7.335 0 1.141-.326 2.445-.978 3.423l-13.692 14.996 14.018 16.952zm29.34-29.177c-4.075 0-10.758 2.119-10.758 8.476h21.679c-.163-6.357-7.009-8.476-10.921-8.476zm19.56 18.093h-30.318c0 8.965 8.639 10.432 12.388 10.432 2.771 0 6.683-.489 9.78-1.956.978-.652 2.445-1.141 3.912-1.141 3.26 0 6.031 2.771 6.031 6.194 0 2.282-1.467 4.238-3.26 5.379-4.564 3.423-10.595 4.238-16.3 4.238-15.159 0-27.71-8.15-27.71-27.221 0-14.996 7.661-28.036 25.591-28.036 14.507 0 25.428 9.454 25.754 26.243 0 3.097-2.608 5.868-5.868 5.868zm41.728 22.983h-4.075c-11.41 0-18.093-5.053-18.093-22.82v-18.419h-3.912c-3.586 0-6.683-3.26-6.683-6.846 0-3.912 3.26-7.009 6.683-7.009h3.912v-14.181c0-4.238 3.26-7.661 7.498-7.661 4.075 0 7.498 3.423 7.498 7.661v14.181h6.194c3.586 0 6.683 3.097 6.683 7.009 0 3.586-3.26 6.846-6.683 6.846h-6.194v15.485c0 10.269.489 12.388 5.053 12.388h2.119c3.586 0 6.683 2.934 6.683 6.683 0 3.586-3.097 6.683-6.683 6.683zm72.535-71.394c1.956 1.141 3.749 3.912 3.749 6.357 0 3.912-3.26 7.172-7.009 7.172-.978 0-1.793-.326-2.608-.489-4.401-3.26-9.943-5.379-15.811-5.379-13.855 0-23.309 11.247-23.309 25.265s9.617 25.102 23.309 25.102c6.846 0 13.04-2.771 17.604-7.172 1.141-.815 2.608-1.304 4.075-1.304 3.749 0 6.683 2.934 6.683 6.683 0 2.445-1.467 4.564-3.26 5.705-6.683 5.705-15.648 9.454-24.939 9.454-21.19 0-38.468-17.441-38.468-38.957 0-21.516 17.278-38.957 38.468-38.957 7.824-.163 15.485 2.282 21.516 6.52zm37.979 58.028c6.683 0 12.388-6.031 12.388-14.181 0-8.15-5.868-13.529-12.388-13.529-6.683 0-11.899 5.542-11.899 13.529 0 7.824 5.379 14.181 11.899 14.181zm15.974 6.846-.326-1.793c-2.934 5.705-12.225 8.313-18.093 8.313-14.018 0-24.45-12.714-24.45-27.873 0-14.996 10.595-27.384 25.265-27.384 2.445 0 10.921.652 17.441 8.313l.326-1.793c0-3.26 2.445-5.868 5.705-5.868 3.26 0 5.868 2.771 5.868 5.868v42.054c0 3.26-2.608 5.868-5.868 5.868-3.423.163-5.868-2.608-5.868-5.705zm52.649-6.846c6.683 0 11.899-6.357 11.899-14.181 0-8.15-5.379-13.529-11.899-13.529-6.683 0-12.388 5.379-12.388 13.529s5.705 14.181 12.388 14.181zm-12.388 8.965v19.071c0 4.238-3.423 7.661-7.498 7.661s-7.498-3.423-7.498-7.661v-63.244c0-3.26 2.608-5.868 5.868-5.868 3.26 0 5.705 2.771 5.705 6.52 5.542-5.705 12.388-7.172 17.604-7.172 14.507 0 25.265 12.225 25.265 27.384 0 14.996-10.269 27.873-24.45 27.873-4.401-.163-10.921-1.467-14.996-4.564z"/>
</svg>