<svg xmlns="http://www.w3.org/2000/svg" viewBox="0 0 396 75">
  <path d="M110.769 53.0466c-7.303 0-11.8286-6.5545-11.8286-15.6232 0-8.9788 3.8086-15.6681 11.7836-15.6681 5.242 0 8.692 3.3671 9.32 7.8116h12.187c-.628-5.522-3.092-10.3705-7.393-13.6029-3.495-2.6937-8.334-4.3547-14.069-4.3547-14.6962 0-24.2397 11.1337-24.2397 25.8141 0 14.7702 9.8572 25.5897 24.3297 25.5897 6.944 0 12.007-1.9304 15.771-5.6118 3.36-3.2323 5.601-7.7218 5.914-12.6152h-12.187c-.537 4.8037-4.122 8.2605-9.588 8.2605Zm44.268-27.3855c-11.291 0-18.863 8.081-18.863 18.7209s7.572 18.7209 18.863 18.7209c11.38 0 18.818-8.081 18.818-18.7209s-7.438-18.7209-18.818-18.7209Zm-.045 29.4057c-4.884 0-7.438-4.2649-7.438-10.6848 0-6.4199 2.554-10.7746 7.438-10.7746s7.527 4.3547 7.527 10.7746c-.044 6.4199-2.643 10.6848-7.527 10.6848Zm34.805-33.1631c2.397-2.4019 2.397-6.2961 0-8.698-2.398-2.4019-6.284-2.4019-8.681 0-2.397 2.4019-2.397 6.2961 0 8.698 2.397 2.4019 6.283 2.4019 8.681 0Zm-14.105 12.6466h4.704v27.4303h11.202V26.604h-15.906v7.9463Zm43.461-8.979c-4.883 0-8.289 2.0651-10.887 5.8811h-.224v-4.8485h-10.798v35.3317h11.246v-19.529c0-4.3547 2.464-7.4524 6.183-7.4524 3.674 0 5.511 2.5589 5.511 6.2852v20.6962h11.246V38.9498c0-7.8565-4.57-13.3785-12.277-13.3785Zm38.622-12.9745h-21.013v49.3388h20.252c6.183 0 11.156-1.5713 15.01-4.4895 5.511-4.22 8.557-11.1786 8.557-19.8881 0-15.0845-9.185-24.9612-22.806-24.9612Zm-1.657 39.1029h-7.169v-28.867h7.303c7.662 0 12.008 5.7913 12.008 14.7702-.045 9.0237-4.167 14.0968-12.142 14.0968Zm57.753-21.4595c-3.046-2.7385-7.034-4.3996-12.052-4.3996-10.754 0-18.102 8.0809-18.102 18.6311 0 10.6848 7.169 18.7658 18.819 18.7658 4.48 0 8.064-1.1673 11.022-3.2324 3.091-2.1549 5.152-5.1629 5.914-8.3503h-10.933c-.985 2.1998-2.912 3.5017-5.869 3.5017-4.615 0-7.214-2.963-7.931-7.7218h25.36c.045-7.228-2.016-13.3336-6.228-17.1945Zm-19.087 10.4604c.762-4.2201 2.957-6.9137 7.214-6.9137 3.629 0 6.273 2.6936 6.676 6.9137h-13.89Zm47.449-.8529c-4.481-.8081-8.468-1.1673-8.468-3.6365 0-2.1998 2.15-3.2324 4.883-3.2324 3.092 0 5.243.9877 5.646 4.1303h10.35c-.538-6.9586-5.914-11.3133-15.906-11.3133-8.334 0-15.234 3.8609-15.234 11.3133 0 8.3054 6.542 9.9216 12.68 10.9542 4.705.8081 8.961 1.1673 8.961 4.3547 0 2.2896-2.15 3.5018-5.511 3.5018-3.719 0-6.049-1.706-6.497-5.2526h-10.618c.358 7.8116 6.81 12.5703 17.16 12.5703 9.23 0 16.04-3.9955 16.04-11.7173.045-9.0238-7.258-10.64-13.486-11.6725Zm39.922.0448 12.411-13.2887h-12.949l-10.484 11.9419V12.5968h-11.067v49.3836h11.067V51.116l3.405-3.5915 8.468 14.4559H396l-13.845-22.0879Z"/>
  <path d="M37.1542 40.7009c1.8807 0 3.4052-1.5276 3.4052-3.412 0-1.8844-1.5245-3.4119-3.4052-3.4119-1.8806 0-3.4052 1.5275-3.4052 3.4119s1.5246 3.412 3.4052 3.412Zm27.1524 0c1.8806 0 3.4052-1.5276 3.4052-3.412 0-1.8844-1.5246-3.4119-3.4052-3.4119-1.8807 0-3.4052 1.5275-3.4052 3.4119s1.5245 3.412 3.4052 3.412Zm0 27.2506c1.8806 0 3.4052-1.5276 3.4052-3.412 0-1.8843-1.5246-3.4119-3.4052-3.4119-1.8807 0-3.4052 1.5276-3.4052 3.4119 0 1.8844 1.5245 3.412 3.4052 3.412Z"/>
  <path d="M74.2978 9.40948C73.9393 4.42622 69.9517.385744 64.9783.0265903 61.7971-.197881 58.9295 1.01426 56.9133 3.0794c-1.5234 1.57129-3.5844 2.51407-5.7799 2.51407h-.8065c-2.2402 0-4.3461-.94278-5.9143-2.55897C42.5756 1.14894 40.0217.0265903 37.199.0265903c-2.8228 0-5.3767 1.1672497-7.2137 3.0079097-1.5682 1.61619-3.674 2.55897-5.9143 2.55897h-.7617c-2.1954 0-4.3013-.85299-5.8247-2.42428-.3136-.31426-.6273-.62852-.9409-.89789-3.8084-3.0977-9.40911-3.007912-13.08314.26937C-.975169 6.44646-1.15439 13.2704 2.9677 17.4006c.04481.0449.08961.0898.13442.1347 1.61299 1.5264 2.46429 3.6814 2.46429 5.8812v.7632c0 2.2447-.94091 4.3547-2.55391 5.926-1.88182 1.8407-3.0019505 4.3996-3.0019505 7.228 0 2.8283 1.1649405 5.3873 3.0019505 7.228 1.613 1.5713 2.55391 3.6813 2.55391 5.926v1.0326c0 2.1998-.94091 4.2649-2.5091 5.7913-1.97143 1.9305-3.181176 4.669-3.0467605 7.6769C.234576 70.286 4.53588 74.551 9.77811 74.7306c3.04679.0898 5.77989-1.1224 7.70649-3.1426 1.5234-1.5713 3.5844-2.559 5.7799-2.559h.8513c2.1955 0 4.2565.9428 5.7799 2.559 2.0162 2.11 4.9286 3.3221 8.1098 3.0977 4.9733-.3592 9.0058-4.3997 9.3643-9.4278.4032-5.9709-4.2565-10.9093-10.126-10.9093-2.778 0-5.3319 1.1223-7.1689 2.963-1.5682 1.5713-3.674 2.5141-5.8695 2.5141h-.9409c-2.1955 0-4.3461-.853-5.9143-2.4692l-.0896-.0898c-1.613-1.5713-2.5539-3.6813-2.5539-5.926v-.8979c0-2.2447.9409-4.3547 2.5539-5.926 1.8818-1.8407 3.002-4.3997 3.002-7.228 0-2.8283-1.165-5.3873-3.002-7.228-1.613-1.5713-2.5539-3.6813-2.5539-5.926v-.8081c0-2.2447.9409-4.3548 2.5091-5.9261.0448-.0448.0448-.0448.0896-.0897l.0896-.0898c1.5682-1.5713 3.674-2.5141 5.9143-2.5141h.8065c2.2403 0 4.3461.9428 5.9143 2.559 1.837 1.8855 4.3909 3.0079 7.2137 3.0079 2.8227 0 5.3766-1.1673 7.2136-3.0079 1.5682-1.6162 3.6741-2.559 5.9143-2.559h.7169c2.2403 0 4.3461.9428 5.9143 2.559 1.837 1.8855 4.3909 3.0079 7.2137 3.0079 5.8247.0449 10.4844-4.8935 10.0812-10.86442Z"/>
</svg>