<svg xmlns="http://www.w3.org/2000/svg" viewBox="0 0 512 512">
  <path d="M367.309 154.687c-.089-.173-.236-.308-.415-.381-20.748-9.519-42.642-16.307-65.136-20.194-.419-.078-.841.122-1.046.495-2.982 5.411-5.688 10.97-8.109 16.653-24.247-3.68-48.911-3.68-73.158 0-2.437-5.698-5.186-11.257-8.236-16.653-.214-.364-.63-.561-1.047-.495-22.496 3.879-44.392 10.667-65.137 20.194-.177.076-.327.204-.429.368-41.485 61.953-52.849 122.383-47.274 182.064.031.296.181.566.416.748 24.156 17.886 51.176 31.539 79.905 40.375.414.125.862-.022 1.123-.367 6.17-8.396 11.637-17.287 16.346-26.581.275-.541.015-1.2-.554-1.409-8.622-3.299-16.969-7.275-24.962-11.892-.63-.37-.682-1.26-.101-1.702 1.677-1.256 3.355-2.564 4.957-3.884.29-.239.691-.293 1.034-.139 52.37 23.9 109.067 23.9 160.817 0 .344-.164.752-.114 1.047.127 1.602 1.32 3.28 2.64 4.97 3.896.584.437.538 1.327-.088 1.702-7.976 4.656-16.33 8.63-24.974 11.88-.569.216-.823.88-.545 1.421 4.788 9.243 10.247 18.122 16.334 26.566.254.355.706.509 1.123.381 28.781-8.807 55.847-22.461 80.034-40.374.238-.174.39-.442.417-.735 6.674-68.998-11.174-128.933-47.312-182.064ZM202.933 300.398c-15.767 0-28.758-14.469-28.758-32.239 0-17.77 12.739-32.24 28.758-32.24 16.145 0 29.01 14.596 28.759 32.239 0 17.771-12.741 32.24-28.759 32.24Zm106.33 0c-15.767 0-28.758-14.469-28.758-32.239 0-17.77 12.739-32.24 28.758-32.24 16.145 0 29.011 14.596 28.759 32.239 0 17.771-12.614 32.24-28.759 32.24Z"/>
</svg>