<svg xmlns="http://www.w3.org/2000/svg" viewBox="0 0 255 50">
  <path d="M34.9 23.65H17.4v6.1h6.8c-1.4 2.1-4 3.4-6.8 3.4-4.3 0-8.3-3.5-8.3-8.3 0-4.8 3.9-8.3 8.3-8.3 2.4 0 4.3.9 5.8 2.3l6.5-6.4c-3.1-3-7.5-4.9-12.3-4.9-9.6 0-17.4 7.8-17.4 17.4 0 9.6 7.8 17.4 17.4 17.4 9.7 0 17.5-7.8 17.5-17.4v-1.3Zm13.7-16.1-16.3 34.8h9.2l2.1-4.5h14.3l2.1 4.5h9.2L52.8 7.55h-4.2Zm-1.4 22.5 3.6-7.7 3.5 7.7h-7.1Zm42.5-9.6L75.4 7.55h-4.2v34.8h9.2v-17.8l9.2 8.3 9.1-8.3v17.9h9.2V7.55h-4.2l-14 12.9Zm44.4-5.4v-7.5h-21.7v34.8h21.7v-7.5h-12.5v-6.4h11.1v-7.7h-11.1v-5.7h12.5Zm87.7 22-23.5-29.6h-3.2v34.2l-16.2-34.2h-2.4l-15.8 33.8-7.1-12.3c5-1 8.8-5.4 8.8-10.6 0-6-4.9-10.8-10.9-10.8h-12.2v35h3.2v-13.5h7.5l7.7 13.4h6.1l4.9-10.5H187l5 10.5h6.5v-29.6l23.5 29.6h3.1v-35h-3.2v29.6h-.1Zm-79.4-26.4h9c4.2 0 7.6 3.5 7.6 7.7s-3.4 7.6-7.6 7.6h-9v-15.3Zm27.7 18.1 7.6-16.3 7.6 16.3h-15.2Z"/>
  <path d="M224.2 7.45v3.2h14.3v31.8h3.2v-31.8h12.5v-3.2h-30Z"/>
</svg>