<svg xmlns="http://www.w3.org/2000/svg" viewBox="0 0 512 512">
  <path d="M370.535 166.891c-.294-2.602-1.554-4.999-3.53-6.716-2.971-2.411-7.558-2.919-9.61-2.885-9.328.166-23.639 5.142-92.511 33.789-24.121 10.035-72.331 30.801-144.628 62.3-11.74 4.667-17.89 9.233-18.45 13.7-1.075 8.574 11.269 11.243 26.8 16.291 12.663 4.117 29.696 8.932 38.551 9.123 8.033.173 16.997-3.138 26.894-9.934 67.55-45.597 102.419-68.645 104.608-69.142 1.545-.349 3.681-.784 5.135.5 1.454 1.284 1.307 3.729 1.154 4.384-1.228 5.236-64.683 62.953-68.335 66.746-13.954 14.5-29.827 23.365-5.342 39.5 21.188 13.962 33.519 22.869 55.346 37.177 13.949 9.144 24.887 19.987 39.287 18.661 6.626-.609 13.472-6.841 16.948-25.425 8.219-43.922 24.368-139.085 28.1-178.3.226-3.262.086-6.538-.417-9.769Z"/>
</svg>