<svg xmlns="http://www.w3.org/2000/svg" viewBox="0 0 40 40">
  <path fill="#fff" d="M29.328506 19.553251c.084 0 .166.013.245.038l.082-.154 6.626-13.787c.094-.189.258-.333.457-.401.03-.01.06-.019.091-.025.017-.004.033-.007.05-.01.104-.017.21-.014.313.01.102.024.199.069.285.13.085.062.157.14.213.229.055.09.092.19.108.294l.21 1.272c.181 1.27.266 2.552.253 3.835-.001 2.771-.335 5.532-.995 8.223-.898 3.674-2.461 7.153-4.612 10.265-2.492 3.58-6.102 7.1-11.289 9.895l-.985.531c-.116.063-.246.096-.379.096-.089 0-.178-.015-.262-.044-.056-.02-.111-.045-.162-.077l-.941-.506c-5.192-2.794-8.801-6.315-11.288-9.895-2.153-3.112-3.716-6.591-4.615-10.267-.66-2.691-.994-5.452-.995-8.223-.013-1.282.071-2.564.252-3.834l.199-1.202c.004-.065.016-.13.036-.192.032-.101.083-.194.151-.275.069-.081.152-.147.246-.195.094-.048.197-.077.302-.085.105-.009.211.004.311.037s.193.086.273.155c.059.051.11.11.151.175.022.033.04.068.056.103l7.117 13.884Zm-25.993-8.571c.002 2.641.32 5.272.949 7.837.851 3.486 2.333 6.786 4.372 9.737 2.146 3.086 5.162 6.125 9.431 8.665l-14.659-28.612c-.071.788-.102 1.581-.093 2.373Zm27.999 17.574c2.04-2.951 3.521-6.251 4.372-9.737.629-2.565.948-5.197.949-7.838.008-.751-.019-1.503-.082-2.252l-5.491 11.416-.015.03-9.092 17.003c4.232-2.531 7.226-5.554 9.359-8.622Zm-11.316 8.916 8.722-16.323h-17.089Zm-11.883-32.207c-.101.031-.207.042-.312.032-.105-.01-.207-.041-.3-.09-.093-.05-.175-.117-.242-.198-.067-.082-.118-.176-.148-.277-.031-.101-.041-.207-.031-.312.01-.105.041-.206.091-.299.05-.093.118-.176.2-.242.082-.067.176-.117.277-.147l12.094-3.692c.152-.046.314-.046.466 0l12.358 3.773c.202.062.372.202.471.389.1.188.121.406.059.609-.061.203-.2.373-.387.473-.187.1-.406.123-.609.062l-12.125-3.702-11.86 3.624Z"/>
</svg>