<svg xmlns="http://www.w3.org/2000/svg" viewBox="0 0 800 800">
  <path fill="#000" d="M765.882812 396.191406c0 67.394532.089844 134.792969-.054687 202.191406-.046875 20.371094-1.539063 40.640626-5.707031 60.683594-6.503906 31.257813-23.675782 55.613282-47.878906 75.605469-19.507813 16.121094-42.089844 24.785156-66.992188 27.996094-17.566406 2.269531-35.207031 3.222656-52.90625 3.222656-131.308594 0-262.617188.089844-393.925781-.097656-19.457031-.027344-38.867188-1.710938-58.007813-5.730469-22.265625-4.671875-41.441406-15.226562-58.238281-30.277344-17.941406-16.078125-31.652344-35.074218-38.996094-58.273437-4.195312-13.257813-6.253906-26.917969-7.378906-40.738281-1.761719-21.574219-1.691406-43.191407-1.6875-64.8125.019531-122.996094-.105469-245.992188.109375-368.988282.042969-22.78125 2.050781-45.492187 8.507812-67.539062 4.589844-15.671875 12.851563-29.410156 23.027344-42.003906C80.96875 68.605469 99.542969 54.132812 122.203125 45.28125 135.09375 40.246094 148.625 37.8125 162.332031 36.375c19.660157-2.0625 39.390625-2.285156 59.140625-2.277344 123.441406.054688 246.886719.058594 370.328125-.011718 14.300781-.007813 28.582031.089843 42.800781 1.742187 26.960938 3.128906 52.695313 9.925781 74.679688 26.742187 26.730469 20.449219 44.246094 46.910157 51.195312 80.128907 3.632813 17.378906 5.398438 34.914062 5.402344 52.640625.011719 66.949218.003906 133.902344.003906 200.851562"/>
  <path fill="#fefefe" d="M483.191 369.574c-3.98 6.231-7.976 12.453-11.933 18.699-14.86 23.457-29.145 47.27-43.656 70.942-4.594 7.496-10.079 14.273-17.258 19.582-21.985 16.254-44.664-.242-47.274-19.371-1.695-12.418-3.047-24.809-3.097-37.328-.059-14.481 0-28.961-.028-43.438-.008-2.113-.207-4.222-.316-6.34-.996.028-1.098.766-1.391 1.254-27.386 45.324-56.172 89.778-84.195 134.707-1.699 2.727-3.348 5.492-5.129 8.164-.824 1.239-.82 1.996.301 3.157 28.328 29.289 61.89 49.062 102.519 55.316 49.266 7.582 94.133-3.469 134.192-33.309 4.867-3.625 9.281-7.851 14.086-11.558 5.91-4.563 12.41-7.434 20.168-5.617 1.074.25 2.015.64 2.832 1.39 1.847 1.688 3.597 3.508 5.601 4.985 5.989 4.418 6.305 10.355 4.653 16.793-1.965 7.679-7.336 12.976-13.149 17.804-27.23 22.625-57.793 38.711-92.574 46.047-66.609 14.051-127.27.676-180.832-41.445-40.824-32.106-66.703-74.129-78.07-124.879-5.899-26.336-6.465-52.867-2.539-79.59 12.191-83.035 71.402-145.851 137.683-171.086 21.567-8.207 43.793-12.652 66.856-13.418 25-.828 49.55 1.406 73.488 9.078 32.351 10.367 60.851 27.203 85.301 50.778 33.351 32.156 54.277 71.129 63.078 116.55 4.293 22.161 5.281 44.555 1.742 66.891-4.27 26.941-26.125 53.559-55.641 59.207-29.179 5.582-56.406-9.5-68.222-38.012-5.082-12.261-6.465-25.172-6.516-38.293-.051-12.062-.012-24.125-.016-36.191 0-.418-.035-.836-.054-1.25-.203-.074-.406-.145-.61-.219Zm-82.98 58.43c.281-.434.578-.863.852-1.301 8.015-12.785 16.035-25.566 24.042-38.351 9.575-15.282 18.52-30.969 28.958-45.696 5.878-8.297 12.699-15.734 21.843-20.582 6.004-3.183 12.348-5.461 19.266-3.75 14.285 3.535 22.316 13.356 25.383 27.164 2.625 11.84 1.82 24.012 1.609 36.059-.246 14.113-.633 28.219 1.707 42.211 1.59 9.519 6.297 17.043 15.465 20.668 8.699 3.437 16.559.367 23.41-5.16 8.277-6.68 12.516-15.797 13.609-26.172 1.497-14.18.879-28.356-1.476-42.446-6.359-38.031-22.406-71.441-49.981-98.371-44.332-43.297-97.503-60.375-158.793-49.113-42.445 7.801-77.105 29.508-104.113 62.93-27.515 34.047-39.699 73.519-39.144 117.113.269 21.031 4.328 41.305 11.957 60.867 1.781 4.563 3.675 9.102 5.875 13.469 1.851 3.676 3.613 3.617 5.734.324 26.441-41.105 51.356-83.18 78.195-124.039 8.379-12.758 15.754-26.16 24.539-38.664 3.825-5.441 8.618-9.754 14.793-12.394 8.692-3.723 18.856-1.825 25.485 4.902 7.453 7.562 9.707 17.211 9.82 27.293.27 24.933.133 49.867.16 74.801.004 6.039 0 12.078 0 18.121Z"/>
</svg>