<svg xmlns="http://www.w3.org/2000/svg" viewBox="0 0 85.56 96.64">
  <path fill="#000" d="M85.56 67.62V22.54L46.52 0v17.29l15.3 8.87a.86.86 0 0 1 0 1.48L43.64 38.1a1.69 1.69 0 0 1-1.71 0L23.75 27.6a.86.86 0 0 1 0-1.48l15.29-8.83V0L0 22.54v45.08l15-8.64V41.32a.86.86 0 0 1 1.28-.74l18.18 10.5a1.71 1.71 0 0 1 .86 1.48v21a.86.86 0 0 1-1.28.74l-15.33-8.84-15 8.64 39 22.54 39-22.54-15-8.64-15.3 8.83a.86.86 0 0 1-1.28-.74v-21a1.71 1.71 0 0 1 1.03-1.47l18.18-10.5a.86.86 0 0 1 1.28.74v17.66Z" class="cls-1"/>
  <path fill="gray" d="M46.52 0v17.29l15.3 8.87a.86.86 0 0 1 0 1.48L43.64 38.1a1.69 1.69 0 0 1-1.71 0L23.75 27.6a.86.86 0 0 1 0-1.48l15.29-8.83V0L0 22.54l42.78 24.7 42.78-24.7Z"/>
  <path fill="#4c4c4c" d="m34.02 74.29-15.3-8.83-15 8.64 39 22.54v-49.4L.01 22.54v45.08l15-8.64V41.32a.86.86 0 0 1 1.28-.74l18.18 10.5a1.71 1.71 0 0 1 .86 1.48v21a.86.86 0 0 1-1.31.73Z" class="cls-1"/>
</svg>