<svg xmlns="http://www.w3.org/2000/svg" viewBox="0 0 19 12">
  <defs>
    <linearGradient id="aboutUsLinearGradient" x1="21.364" x2=".975" y1="-3.429" y2="-2.968" gradientUnits="userSpaceOnUse">
      <stop stop-color="#F9B131"/>
      <stop offset="1" stop-color="#E15C24"/>
    </linearGradient>
  </defs>
  <path fill="url(#aboutUsLinearGradient)" d="M13.755.004h-8.51a4.37 4.37 0 0 0-1.993.395 5.053 5.053 0 0 0-1.705 1.286A6.154 6.154 0 0 0 .403 3.656 6.961 6.961 0 0 0 0 6c0 .805.137 1.603.403 2.344a6.138 6.138 0 0 0 1.144 1.972c.49.559 1.07.996 1.705 1.285a4.37 4.37 0 0 0 1.993.395h8.51a4.37 4.37 0 0 0 1.993-.395 5.054 5.054 0 0 0 1.705-1.286c.489-.56.878-1.23 1.144-1.971A6.96 6.96 0 0 0 19 6a6.96 6.96 0 0 0-.403-2.344 6.137 6.137 0 0 0-1.144-1.971A5.054 5.054 0 0 0 15.748.399a4.37 4.37 0 0 0-1.993-.395ZM9.5 3.486h4.291c.081 0 .158.038.215.105a.396.396 0 0 1 .09.254.396.396 0 0 1-.09.255.282.282 0 0 1-.215.105H9.506a.282.282 0 0 1-.215-.105.396.396 0 0 1-.089-.255.39.39 0 0 1 .09-.254.282.282 0 0 1 .214-.105H9.5ZM5.573 9.464a2.66 2.66 0 0 1-1.657-.591 3.462 3.462 0 0 1-1.1-1.582 4.13 4.13 0 0 1-.17-2.038 3.765 3.765 0 0 1 .815-1.807c.417-.493.948-.83 1.527-.965a2.553 2.553 0 0 1 1.722.202c.544.268 1.01.721 1.336 1.302.327.58.5 1.263.5 1.961 0 .933-.313 1.828-.87 2.488-.558.66-1.314 1.03-2.103 1.03Zm7.234-1.317h-3.3a.265.265 0 0 1-.203-.099.372.372 0 0 1-.084-.239c0-.09.03-.177.084-.241a.272.272 0 0 1 .202-.104h3.3c.077.002.15.04.203.104a.38.38 0 0 1 .083.241c0 .09-.03.176-.083.24a.265.265 0 0 1-.202.098Zm2.48-1.92H9.42a.27.27 0 0 1-.204-.099.378.378 0 0 1 0-.482.277.277 0 0 1 .204-.103h5.866c.076.002.149.04.202.104a.392.392 0 0 1 .062.371.347.347 0 0 1-.062.11.287.287 0 0 1-.093.073.248.248 0 0 1-.11.026Z"/>
</svg>