<svg xmlns="http://www.w3.org/2000/svg" viewBox="0 0 140 42">
  <path fill="#262626" d="M105.032 21v6.925H91.328L91.331.33h6.934V21h6.767Zm-15.391 6.925h-6.924l-3.976-11.11L68.877 42h-6.931L78.391 0l3.517 8.725 7.733 19.201v-.001Zm50.359 0h-6.927l-3.973-11.11-4.442 11.109h-6.931L128.748.331l3.519 8.393L140 27.926v-.001ZM117.936.33h6.92l-10.893 27.595h-7.112l3.424-8.679L102.649.329h6.924l3.884 10.841.064.178M42.836.33v27.596H22.201V.33h6.935v20.671h6.765V.33h6.935Zm23.223 20.387h-6.457l5.468 7.206h-7.087l-5.488-7.206v-7.001h6.633V6.882h-7.692v21.041h-6.933L44.499.33h21.556l.004 20.387ZM20.796.33v27.596h-6.932V16.295l-4.75 1.597-.028.011-2.155.726-3.284 1.26 3.284-.601v8.637H0V.331h6.931v11.335l6.933-2.333V.33h6.932ZM4.426 36.45v-5.387h3.221v.578H5.074v1.821H7.48v.578H5.074v1.832h2.615v.579H4.426v-.001Zm4.918-2.43v2.43h-.615v-4.04h.594v.631h.052c.094-.205.236-.37.427-.494.192-.127.438-.19.74-.19a1.44 1.44 0 0 1 .711.168c.203.11.361.28.474.506.114.224.17.508.17.852v2.568h-.614v-2.526c0-.318-.082-.565-.245-.742-.165-.179-.389-.268-.673-.268-.196 0-.371.043-.527.128a.914.914 0 0 0-.362.377 1.272 1.272 0 0 0-.132.6Zm5.418-1.61v.525h-2.075v-.525h2.075Zm-1.471-.968h.615v3.851c0 .175.025.307.076.395.044.079.114.14.198.174.083.028.17.042.258.041.068 0 .124-.003.166-.01l.104-.021.125.558a1.27 1.27 0 0 1-.457.073c-.177 0-.351-.039-.511-.113a1.005 1.005 0 0 1-.412-.344 1 1 0 0 1-.162-.585v-4.019Zm4.031 5.093c-.386 0-.72-.086-.999-.258a1.718 1.718 0 0 1-.643-.726 2.478 2.478 0 0 1-.225-1.089c0-.414.075-.779.225-1.095.15-.317.36-.564.63-.742a1.68 1.68 0 0 1 .948-.268c.208 0 .414.035.617.105.204.07.388.184.556.343.166.155.299.363.399.619.098.259.147.576.147.954v.263h-3.084v-.537h2.46c0-.228-.046-.432-.136-.61a1.021 1.021 0 0 0-.959-.58c-.244 0-.456.062-.635.185a1.192 1.192 0 0 0-.409.473 1.397 1.397 0 0 0-.144.627v.357c0 .305.052.565.157.777.106.21.252.37.439.482.188.108.407.162.656.162a1.3 1.3 0 0 0 .436-.069.932.932 0 0 0 .342-.21.951.951 0 0 0 .221-.352l.594.167a1.326 1.326 0 0 1-.315.538 1.551 1.551 0 0 1-.546.358 2.02 2.02 0 0 1-.733.126h.001Zm2.591-.085v-4.04h.594v.61h.042a.965.965 0 0 1 .396-.487c.193-.125.417-.19.646-.187.108.001.216.005.323.011v.632a1.73 1.73 0 0 0-.144-.024 1.37 1.37 0 0 0-.232-.019 1.08 1.08 0 0 0-.52.124.908.908 0 0 0-.49.824v2.557h-.615v-.001Zm4.721-4.04v.525h-2.073v-.525h2.073Zm-1.469-.968h.614v3.851c0 .175.026.307.076.395a.39.39 0 0 0 .199.174c.083.028.17.042.257.041.068 0 .124-.003.166-.01l.104-.021.126.558a1.27 1.27 0 0 1-.457.073c-.178 0-.352-.039-.512-.113a1.002 1.002 0 0 1-.411-.344 1 1 0 0 1-.162-.585v-4.019Zm3.572 5.104a1.64 1.64 0 0 1-.691-.145 1.2 1.2 0 0 1-.492-.423 1.203 1.203 0 0 1-.182-.674c0-.232.045-.419.135-.563a.959.959 0 0 1 .362-.342c.157-.085.327-.147.501-.184.184-.043.368-.076.555-.101.243-.031.44-.055.591-.071a.902.902 0 0 0 .333-.086c.072-.041.107-.11.107-.211v-.021c0-.259-.07-.461-.212-.605-.137-.144-.349-.216-.632-.216-.293 0-.524.065-.691.195a1.146 1.146 0 0 0-.35.416l-.585-.211c.104-.246.243-.436.417-.573.176-.139.367-.236.573-.29.201-.055.407-.083.615-.084.128 0 .277.016.443.047.169.03.331.093.488.187.157.094.289.238.393.429.105.191.156.447.156.768v2.662h-.615v-.547h-.031a1.083 1.083 0 0 1-.208.282c-.098.1-.227.185-.389.255a1.477 1.477 0 0 1-.591.106Zm.093-.558c.244 0 .449-.049.614-.145a.987.987 0 0 0 .512-.856v-.568c-.027.032-.084.061-.172.088-.1.027-.201.049-.302.065-.196.03-.392.057-.589.079a2.292 2.292 0 0 0-.448.103.782.782 0 0 0-.334.207.535.535 0 0 0-.124.374c0 .217.078.379.236.489.161.109.363.164.607.164Zm2.863.462v-4.04h.614v4.04h-.614Zm.312-4.713a.44.44 0 0 1-.31-.125.407.407 0 0 1-.127-.297.431.431 0 0 1 .438-.421.42.42 0 0 1 .307.124.393.393 0 0 1 .131.297.395.395 0 0 1-.131.297.424.424 0 0 1-.307.124l-.001.001Zm2.045 2.283v2.43h-.616v-4.04h.594v.631h.053c.094-.205.235-.37.426-.494.192-.127.439-.19.741-.19.272 0 .507.056.711.168.203.11.361.28.475.506.112.224.169.508.169.852v2.568h-.615v-2.526c0-.318-.082-.565-.246-.742-.162-.179-.387-.268-.672-.268-.195 0-.37.043-.526.128a.905.905 0 0 0-.361.377c-.094.185-.14.392-.133.6Zm3.676 2.43v-4.04h.595v.631h.052c.083-.216.217-.384.403-.502.186-.121.409-.182.67-.182.263 0 .483.061.658.182.178.118.316.286.414.502h.043c.102-.209.256-.374.46-.497.205-.125.452-.187.738-.187.358 0 .651.113.879.339.227.225.34.575.34 1.05v2.704h-.614v-2.704c0-.298-.082-.511-.243-.639a.889.889 0 0 0-.57-.192c-.282 0-.499.085-.654.258a.92.92 0 0 0-.232.647v2.63h-.626v-2.767a.728.728 0 0 0-.221-.556.786.786 0 0 0-.57-.212.827.827 0 0 0-.448.128.96.96 0 0 0-.334.359c-.083.15-.125.325-.125.523v2.525h-.615Zm8.055.085c-.387 0-.718-.086-.998-.258a1.725 1.725 0 0 1-.643-.726 2.491 2.491 0 0 1-.224-1.089c0-.414.073-.779.224-1.095.151-.317.36-.564.631-.742.27-.179.586-.268.947-.268.209 0 .414.035.618.105.203.07.388.184.556.343.165.155.299.363.397.619.1.259.149.576.149.954v.263h-3.085v-.537h2.46c0-.228-.045-.432-.137-.61a1.019 1.019 0 0 0-.958-.58 1.084 1.084 0 0 0-.634.185 1.194 1.194 0 0 0-.41.473 1.41 1.41 0 0 0-.143.627v.357c0 .305.051.565.155.777.106.21.254.37.441.482.188.108.405.162.654.162.161 0 .308-.023.438-.069a.928.928 0 0 0 .341-.21.954.954 0 0 0 .222-.352l.594.167a1.317 1.317 0 0 1-.316.538 1.555 1.555 0 0 1-.547.358c-.234.087-.482.13-.731.126h-.001Zm3.207-2.515v2.43h-.615v-4.04h.595v.631h.052c.093-.205.236-.37.427-.494.191-.127.438-.19.74-.19.271 0 .506.056.711.168.203.11.361.28.474.506.113.224.169.508.169.852v2.568h-.614v-2.526c0-.318-.082-.565-.245-.742-.164-.179-.388-.268-.673-.268-.195 0-.37.043-.527.128a.917.917 0 0 0-.361.377 1.258 1.258 0 0 0-.133.6Zm5.418-1.61v.525H50.33v-.525h2.076Zm-1.47-.968h.614v3.851c0 .175.026.307.077.395.044.079.113.14.198.174a.773.773 0 0 0 .257.041c.068 0 .124-.003.167-.01l.104-.021.125.558a1.27 1.27 0 0 1-.457.073c-.178 0-.352-.039-.512-.113a1.002 1.002 0 0 1-.411-.344.994.994 0 0 1-.162-.585v-4.019Zm45.978 1.304h-.646a1.366 1.366 0 0 0-.546-.853 1.44 1.44 0 0 0-.444-.22 1.768 1.768 0 0 0-.51-.074 1.62 1.62 0 0 0-.879.247 1.746 1.746 0 0 0-.624.729c-.151.321-.228.715-.228 1.181 0 .467.077.861.229 1.182.155.321.362.564.623.728.263.165.556.248.878.248.178 0 .347-.025.511-.074a1.39 1.39 0 0 0 .99-1.073h.646a2.204 2.204 0 0 1-.266.74 2.008 2.008 0 0 1-1.123.899 2.377 2.377 0 0 1-.757.118c-.456 0-.861-.112-1.215-.336a2.318 2.318 0 0 1-.837-.958c-.202-.413-.305-.905-.305-1.474 0-.568.103-1.059.305-1.473.204-.413.483-.733.837-.957a2.221 2.221 0 0 1 1.215-.337c.268 0 .52.039.757.118.238.079.453.195.644.347.191.151.35.335.479.553.129.216.217.463.266.738v.001Zm2.586 3.789c-.36 0-.678-.087-.951-.261a1.756 1.756 0 0 1-.635-.728 2.475 2.475 0 0 1-.227-1.095c0-.42.076-.787.227-1.102.153-.314.364-.558.635-.731.273-.175.591-.261.951-.261.361 0 .677.086.949.261.272.173.485.417.635.731.154.315.229.682.229 1.102 0 .418-.075.782-.229 1.095a1.736 1.736 0 0 1-.635.728 1.719 1.719 0 0 1-.949.261Zm0-.558c.275 0 .501-.071.677-.213.181-.146.317-.34.394-.56a2.15 2.15 0 0 0 .127-.753c0-.27-.041-.522-.127-.755a1.266 1.266 0 0 0-.394-.566c-.176-.143-.402-.216-.677-.216-.273 0-.5.073-.677.216a1.27 1.27 0 0 0-.393.566 2.16 2.16 0 0 0-.128.755c0 .27.042.521.128.753.085.231.215.418.393.56.177.142.404.213.677.213Zm2.753.473v-4.04h.593v.61h.042a.97.97 0 0 1 .396-.487c.192-.125.417-.19.646-.187.107.001.215.005.323.011v.632a1.706 1.706 0 0 0-.143-.024 1.388 1.388 0 0 0-.232-.019c-.195 0-.368.042-.521.124a.908.908 0 0 0-.489.824v2.557h-.615v-.001Zm2.729 1.516V32.41h.594v.642h.073c.06-.092.122-.181.188-.269.095-.122.214-.223.348-.295.154-.087.36-.131.621-.131.337 0 .634.085.89.256.258.169.459.41.604.723.143.312.215.68.215 1.105 0 .428-.072.799-.215 1.112a1.718 1.718 0 0 1-.601.727c-.254.17-.549.256-.883.256-.256 0-.462-.044-.617-.13a1.174 1.174 0 0 1-.357-.297 3.764 3.764 0 0 1-.193-.28h-.052v2.138h-.615v-.001Zm.604-3.536c0 .305.045.575.134.807.088.232.217.413.388.545.17.13.378.195.625.195.257 0 .472-.069.644-.205.173-.138.304-.324.39-.558.089-.235.133-.497.133-.784 0-.284-.043-.54-.13-.767a1.188 1.188 0 0 0-.387-.546 1.03 1.03 0 0 0-.65-.202 1.01 1.01 0 0 0-.63.192c-.177.135-.312.32-.386.531-.087.226-.131.49-.131.792Zm5.493 2.106a1.725 1.725 0 0 1-.95-.262 1.754 1.754 0 0 1-.637-.728c-.152-.313-.226-.677-.226-1.095 0-.42.074-.787.226-1.102.152-.314.365-.558.637-.731.285-.178.615-.268.95-.261.361 0 .678.086.948.261.273.173.484.417.636.731.152.315.229.682.229 1.102 0 .418-.077.782-.229 1.095-.14.298-.36.551-.636.728a1.715 1.715 0 0 1-.948.261v.001Zm0-.559c.274 0 .5-.071.678-.213.177-.142.308-.329.393-.56.085-.232.127-.483.127-.753s-.042-.522-.127-.755a1.285 1.285 0 0 0-.393-.566c-.178-.143-.404-.216-.678-.216-.275 0-.501.073-.677.216-.18.148-.317.344-.394.566-.086.242-.13.498-.127.755 0 .27.042.521.127.753.085.231.217.418.394.56.176.142.402.213.677.213Zm2.752.473v-4.04h.594v.61h.041a.972.972 0 0 1 .397-.487c.192-.125.417-.19.646-.187.108.001.215.005.323.011v.632a1.801 1.801 0 0 0-.144-.024 1.388 1.388 0 0 0-.232-.019c-.194 0-.367.042-.52.124a.908.908 0 0 0-.49.824v2.557h-.615v-.001Zm3.908.096c-.254 0-.484-.05-.691-.145a1.196 1.196 0 0 1-.493-.423 1.21 1.21 0 0 1-.182-.674c0-.232.045-.419.136-.563a.966.966 0 0 1 .362-.342c.151-.083.318-.144.5-.184.184-.043.369-.076.555-.101.243-.031.44-.055.591-.071a.902.902 0 0 0 .334-.086c.071-.041.107-.11.107-.211v-.021c0-.259-.071-.461-.211-.605-.14-.144-.35-.216-.634-.216-.293 0-.523.065-.69.195a1.151 1.151 0 0 0-.352.416l-.583-.211c.104-.246.243-.436.416-.573.169-.136.365-.234.574-.29.208-.056.413-.084.615-.084.149.002.296.018.442.047.169.03.332.093.487.187.159.094.29.238.394.429.104.191.156.447.156.768v2.662h-.614v-.547h-.032a1.164 1.164 0 0 1-.596.537 1.477 1.477 0 0 1-.591.106Zm.093-.558c.243 0 .448-.049.615-.145a.986.986 0 0 0 .511-.856v-.568c-.026.032-.083.061-.172.088-.1.027-.201.049-.303.065-.196.03-.392.057-.589.079a2.283 2.283 0 0 0-.447.103.782.782 0 0 0-.334.207.531.531 0 0 0-.125.374c0 .217.079.379.237.489.159.109.362.164.607.164Zm4.603-3.578v.525h-2.074v-.525h2.074Zm-1.469-.968h.614v3.851c0 .175.026.307.076.395a.395.395 0 0 0 .198.174.789.789 0 0 0 .259.041c.091.001.182-.01.27-.031l.125.558a1.284 1.284 0 0 1-.459.073c-.173 0-.343-.037-.511-.113a1.009 1.009 0 0 1-.411-.344.993.993 0 0 1-.161-.585v-4.019Zm2.394 5.008v-4.04h.615v4.04h-.615Zm.312-4.713a.437.437 0 0 1-.309-.125.397.397 0 0 1-.128-.297.4.4 0 0 1 .128-.297.432.432 0 0 1 .309-.124c.12 0 .222.041.308.124a.392.392 0 0 1 .13.297.395.395 0 0 1-.13.297.428.428 0 0 1-.308.124v.001Zm3.055 4.798a1.724 1.724 0 0 1-.95-.261 1.76 1.76 0 0 1-.637-.728 2.49 2.49 0 0 1-.226-1.095c0-.42.075-.787.226-1.102.153-.314.365-.558.637-.731.285-.178.615-.268.95-.261.361 0 .678.086.948.261.273.173.484.417.636.731.152.315.23.682.23 1.102 0 .418-.078.782-.23 1.095-.14.298-.36.551-.636.728a1.715 1.715 0 0 1-.948.261Zm0-.558c.274 0 .501-.071.678-.213.177-.142.308-.329.393-.56.085-.232.128-.483.128-.753s-.043-.522-.128-.755a1.277 1.277 0 0 0-.393-.566c-.177-.143-.404-.216-.678-.216-.275 0-.501.073-.678.216-.18.149-.316.345-.392.566a2.16 2.16 0 0 0-.128.755c0 .27.042.521.128.753.084.231.216.418.392.56.177.142.403.213.678.213Zm3.367-1.958v2.431h-.615v-4.04h.595v.631h.051c.092-.203.241-.375.427-.494.192-.127.439-.19.741-.19.247-.006.492.052.711.168.203.11.361.28.473.506.114.224.17.508.17.852v2.568h-.615v-2.526c0-.318-.082-.565-.244-.742-.164-.179-.388-.268-.673-.268-.196 0-.371.043-.526.128a.916.916 0 0 0-.363.377 1.245 1.245 0 0 0-.132.6v-.001Z"/>
</svg>