<svg xmlns="http://www.w3.org/2000/svg" viewBox="0 0 14 14">
  <defs>
    <linearGradient id="insigniaNFTLinearGradient" x1="10.5" x2="3.384" y1="0" y2=".539" gradientUnits="userSpaceOnUse">
      <stop stop-color="#31E1F9"/>
      <stop offset="1" stop-color="#24A8E1"/>
    </linearGradient>
  </defs>
  <path fill="url(#insigniaNFTLinearGradient)" d="M13.886 6.526 10.808.474A.906.906 0 0 0 10.5.127.767.767 0 0 0 10.081 0H3.919a.767.767 0 0 0-.42.127.906.906 0 0 0-.307.347L.114 6.526A1.031 1.031 0 0 0 0 7c0 .167.04.33.114.474l3.078 6.045c.074.145.18.266.307.35.128.084.272.13.42.131h6.162a.774.774 0 0 0 .42-.131.914.914 0 0 0 .307-.35l3.078-6.045a1.039 1.039 0 0 0 0-.948Zm-8.319 3.25h-.77L3.44 7.308a15.08 15.08 0 0 1-.515-.99v3.456h-.763V4.747h.8l1.393 2.46c.17.308.327.604.467.892V4.746h.745v5.03ZM8.748 5.57H7.033v1.257h1.564v.81H7.033v2.137h-.812V4.747h2.515l.012.824Zm3.369 0h-1.273v4.197h-.83v-4.19h-1.26v-.831h3.35l.013.824Z"/>
</svg>