<svg xmlns="http://www.w3.org/2000/svg" viewBox="0 0 25 12">
  <defs>
    <linearGradient id="whitePaperLinearGradient" x1="22.917" x2="9.587" y1="0" y2="1.12" gradientUnits="userSpaceOnUse">
      <stop stop-color="#7CF153"/>
      <stop offset="1" stop-color="#29B751"/>
    </linearGradient>
  </defs>
  <path fill="url(#whitePaperLinearGradient)" d="M18.505.003H6.07A6.421 6.421 0 0 0 1.765 1.83 5.861 5.861 0 0 0 0 6c0 1.556.633 3.051 1.765 4.17a6.422 6.422 0 0 0 4.305 1.827h12.434a6.553 6.553 0 0 0 2.47-.397 6.328 6.328 0 0 0 2.11-1.286 6.002 6.002 0 0 0 1.417-1.971 5.755 5.755 0 0 0 0-4.686 6 6 0 0 0-1.417-1.971A6.327 6.327 0 0 0 20.974.4a6.55 6.55 0 0 0-2.47-.397Zm-1.062 3.228c.197 0 .39.056.554.16a.963.963 0 0 1 .367.428.912.912 0 0 1 .056.55.94.94 0 0 1-.272.487c-.14.133-.317.223-.51.26a1.04 1.04 0 0 1-.576-.054.988.988 0 0 1-.448-.35.922.922 0 0 1 .124-1.202 1.02 1.02 0 0 1 .705-.279ZM7.239 6.824H4.85v-.876h2.383l.007.876Zm1.38 2.717h-.881V7.266h.917L8.619 9.54Zm0-4.034h-.881V3.23h.917l-.036 2.276Zm2.845 1.317H9.08v-.876h2.383v.876Zm3.993.11a1.03 1.03 0 0 1-.555-.157.963.963 0 0 1-.37-.425.912.912 0 0 1-.06-.55.94.94 0 0 1 .27-.49c.14-.134.317-.225.51-.262a1.04 1.04 0 0 1 .578.053.988.988 0 0 1 .448.35.922.922 0 0 1-.12 1.2 1.02 1.02 0 0 1-.7.281Zm1.986 1.932a1.03 1.03 0 0 1-.554-.16.963.963 0 0 1-.367-.428.913.913 0 0 1-.056-.55.94.94 0 0 1 .272-.487 1.01 1.01 0 0 1 .51-.26 1.04 1.04 0 0 1 .576.054.988.988 0 0 1 .448.35.922.922 0 0 1-.124 1.202 1.02 1.02 0 0 1-.705.279Zm1.993-1.932a1.03 1.03 0 0 1-.554-.16.963.963 0 0 1-.367-.427.912.912 0 0 1-.056-.55.94.94 0 0 1 .272-.487 1.01 1.01 0 0 1 .51-.26 1.04 1.04 0 0 1 .576.053.988.988 0 0 1 .448.351.922.922 0 0 1-.124 1.202 1.02 1.02 0 0 1-.705.278Z"/>
</svg>